<svg width="134" height="76" viewBox="0 0 134 76" fill="none" xmlns="http://www.w3.org/2000/svg">
<g clip-path="url(#clip0_1_455)">
<path fill-rule="evenodd" clip-rule="evenodd" d="M125.234 65.2309L122.81 58.9647L120.379 65.2309H125.234ZM133.281 74.6291H128.924L126.732 69.088H118.888L116.696 74.6291H112.339L121.225 53.1637H124.398L133.281 74.6291ZM110.11 63.7051C110.11 66.656 109.249 69.1927 107.527 71.3153C105.447 73.8536 102.528 75.1228 98.7705 75.1228C95.1565 75.1228 92.291 73.9253 90.174 71.5303C88.3291 69.4761 87.3292 66.7939 87.3767 64.0263C87.3516 61.2357 88.3711 58.5377 90.2327 56.4681C92.3858 54.018 95.2121 52.7921 98.7117 52.7905C101.154 52.7905 103.289 53.3802 105.114 54.5596C106.929 55.7219 108.309 57.4563 109.039 59.4914H104.314C103.782 58.5853 103.007 57.8484 102.078 57.3656C101.031 56.8563 99.8784 56.6076 98.7164 56.6405C96.3677 56.6405 94.5122 57.4223 93.1499 58.9859C91.949 60.3256 91.2992 62.0742 91.332 63.8775C91.2987 65.7545 91.9918 67.571 93.265 68.9439C94.6883 70.4871 96.5634 71.2586 98.8903 71.2586C100.191 71.2762 101.474 70.9505 102.611 70.3139C103.741 69.6616 104.621 68.6481 105.112 67.4346H96.208V63.7051H110.11ZM79.4402 63.9224C79.446 62.9605 79.2606 62.0071 78.895 61.1182C78.5294 60.2294 77.9909 59.4229 77.3111 58.7461C76.6314 58.0693 75.824 57.5359 74.9365 57.1772C74.0489 56.8185 73.0991 56.6416 72.1426 56.657C70.0476 56.657 68.3071 57.3609 66.9214 58.7686C66.2468 59.4419 65.715 60.2458 65.3581 61.1316C65.0013 62.0174 64.8267 62.9668 64.8451 63.9224C64.8279 64.89 65.0064 65.851 65.3698 66.7471C65.7331 67.6432 66.2738 68.4557 66.9589 69.1352C67.6275 69.8303 68.4315 70.3791 69.3206 70.7473C70.2097 71.1155 71.1648 71.2952 72.1262 71.2752C74.2213 71.2752 75.9664 70.5571 77.3616 69.1211C78.0379 68.4372 78.5704 67.6234 78.9275 66.7283C79.2846 65.8331 79.459 64.8749 79.4402 63.9106V63.9224ZM83.3932 64.0098C83.4211 65.4793 83.1472 66.9388 82.5887 68.297C82.0301 69.6552 81.199 70.8829 80.1472 71.9034C77.9848 74.0544 75.3166 75.1315 72.1426 75.1346C68.9687 75.1378 66.3005 74.0607 64.1381 71.9034C63.0866 70.8828 62.2558 69.655 61.6977 68.2968C61.1396 66.9386 60.8661 65.4791 60.8945 64.0098C60.8662 62.5317 61.1394 61.0634 61.6973 59.6957C62.2552 58.3279 63.0858 57.0895 64.1381 56.0571C66.3005 53.8873 68.9687 52.8016 72.1426 52.8C75.3166 52.7984 77.9848 53.8841 80.1472 56.0571C81.1983 57.088 82.0285 58.3244 82.5867 59.69C83.145 61.0556 83.4194 62.5217 83.3932 63.998V64.0098ZM52.9533 64.024C52.9533 61.1046 51.9355 59.0938 49.8999 57.9915C48.7271 57.3617 47.1699 57.0468 45.2283 57.0468H43.4972V70.7957H45.4303C47.3328 70.7957 48.8516 70.4863 49.9868 69.8674C51.9645 68.7668 52.9533 66.815 52.9533 64.0122V64.024ZM56.9039 64.024C56.9136 65.3043 56.7291 66.5787 56.3567 67.8031C55.8324 69.6102 54.766 71.2105 53.3033 72.3853C51.382 73.8938 48.7984 74.648 45.5524 74.648H39.5396V53.1637H45.4538C48.4711 53.1637 50.913 53.7936 52.7795 55.0533C54.3196 56.0831 55.4839 57.5898 56.096 59.3449C56.6493 60.8372 56.9232 62.4196 56.9039 64.0122V64.024ZM27.0748 65.2427L24.6508 58.9765L22.2269 65.2309L27.0748 65.2427ZM35.1192 74.6291H30.7623L28.5709 69.088H20.7261L18.5347 74.6291H14.1777L23.0631 53.1637H26.2362L35.1192 74.6291ZM10.5935 74.6291H0.122803V53.1637H4.07341V70.7721H10.5935V74.6291Z" fill="white"/>
<path fill-rule="evenodd" clip-rule="evenodd" d="M39.8285 22.593C39.8285 32.9171 51.887 41.2878 66.764 41.2878C81.641 41.2878 93.7019 32.9171 93.7019 22.593C93.7019 12.2689 81.641 3.9005 66.764 3.9005C51.887 3.9005 39.8285 12.2713 39.8285 22.593ZM36.4416 22.593C36.4416 34.587 49.9892 44.3111 66.7006 44.3111C83.412 44.3111 96.9619 34.587 96.9619 22.593C96.9619 10.599 83.4143 0.877197 66.7006 0.877197C49.9868 0.877197 36.4416 10.6014 36.4416 22.593V22.593Z" fill="white"/>
<path d="M81.1877 35.697C82.2985 35.1537 83.3677 34.5284 84.3867 33.8263C88.6145 30.8904 91.231 26.9153 91.231 22.5929C91.231 18.2705 88.6145 14.2953 84.3867 11.3618C80.4126 8.60304 75.0481 6.78197 69.0587 6.39697L81.1877 35.697ZM57.7565 37.7401C63.6265 39.2422 69.777 39.2422 75.647 37.7401C70.9236 25.7981 71.2055 26.4712 66.7006 14.8291C62.2027 26.4618 62.4728 25.8217 57.7565 37.7401ZM42.1655 22.5929C42.1655 26.9153 44.782 30.8904 49.0121 33.8263C50.0294 34.5298 51.098 35.1551 52.2088 35.697L64.3377 6.40878C58.339 6.78906 52.9839 8.61485 49.0121 11.3689C44.7891 14.2953 42.1655 18.2729 42.1655 22.5929Z" fill="white"/>
</g>
<defs>
<clipPath id="clip0_1_455">
<rect width="133.158" height="74.2456" fill="white" transform="translate(0.122803 0.877197)"/>
</clipPath>
</defs>
</svg>
