<svg width="105" height="71" viewBox="0 0 105 71" fill="none" xmlns="http://www.w3.org/2000/svg">
<path d="M66.6529 29.0131C65.0788 27.7942 62.3168 26.8029 59.9714 27.5115C58.8857 27.8388 57.6666 28.7517 56.8631 29.8352C56.8358 29.8727 56.8085 29.9103 56.782 29.9479C56.7601 29.7671 56.7445 29.6261 56.7376 29.5713C56.6198 28.6357 54.6651 27.712 54.1487 27.712H54.1284C53.7744 27.7307 53.5006 28.0047 53.492 28.3524C53.4608 29.6849 54.0699 32.8212 54.1401 33.175C54.169 33.3199 54.208 33.5101 54.2548 33.7411C54.5379 35.1127 55.1261 37.9671 55.4521 40.8991C55.7548 43.6252 54.9841 45.5205 52.9233 50.5852L52.8914 50.6626C51.5014 54.0816 50.8439 57.4394 50.8829 60.9295C50.8899 61.5629 51.0919 67.206 55.9513 69.9744C56.7196 70.412 58.2757 71 60.0096 71C61.6882 71 63.5329 70.4489 64.9891 68.6795C65.7745 67.7236 66.3596 66.3182 66.6817 64.6139C66.805 63.9578 66.8588 63.2266 66.851 62.3137C66.8392 61.029 64.6139 59.8726 63.9065 59.7943C63.4159 59.7404 63.1249 60.0268 63.0539 60.3346L63.0282 60.4442L63.0422 60.5569C63.309 62.5979 62.7326 65.4829 60.8365 66.9939C60.2359 67.4723 59.005 68.1589 57.5128 67.3845C55.9848 66.5907 55.0723 64.1778 54.9443 60.5922C54.8453 57.8152 55.8998 54.4886 56.5292 52.5016L56.594 52.2942C56.8218 51.5778 57.1049 50.8278 57.4059 50.0339C58.3443 47.5514 59.4082 44.7369 59.1618 41.7156C59.065 40.5272 58.8186 39.3529 58.6009 38.3163C58.5167 37.9185 58.4395 37.5467 58.3795 37.2148C58.0378 35.3381 58.0682 34.3979 58.4996 33.4913C58.7834 32.8947 59.3225 32.2989 60.0167 31.8151C60.3793 31.5615 62.5804 30.6118 64.2684 32.2222C66.0538 33.9242 66.9188 36.4921 66.4734 38.7633C66.1646 40.3331 65.6295 41.3101 64.9634 41.5152C64.3589 41.7 63.6211 41.2615 63.1179 40.7731L63.0851 40.7268C62.9088 40.474 62.4409 39.8038 62.2553 39.1039C62.1273 38.6169 61.7662 38.4509 61.4901 38.4542C60.4543 38.4706 59.5322 41.2507 59.5253 41.2788L59.4792 41.4832L59.5643 41.6741C60.4262 43.604 62.7411 44.7102 65.1989 44.3627C66.3144 44.2053 67.9648 43.7707 69.4008 41.8198C70.5755 40.2258 70.8579 38.0939 70.8391 37.0849C70.8157 35.7366 70.4717 34.3658 69.7565 32.7695C69.5506 32.3122 68.3033 30.2916 66.6529 29.0131Z" fill="#141414"/>
<path d="M32.9838 35.9098C32.8754 33.1391 32.9979 31.2054 33.0563 30.2761C33.0759 29.9567 33.0875 29.7813 33.0836 29.6661C33.047 28.455 31.3404 27.013 30.1673 26.9111C29.9737 26.8939 29.6797 26.9346 29.3833 27.2227C28.6322 27.9531 28.2086 29.9409 28.328 32.1487C28.3311 32.3131 28.3451 32.5323 28.3615 32.793C28.4208 33.7036 28.5207 35.2279 28.1977 36.4704C27.8241 37.9053 27.392 38.3962 26.2727 38.6577C24.3758 39.1017 23.0583 37.5234 22.8774 37.1946C21.5366 34.7534 22.6917 32.6834 23.3127 31.5709C23.5209 31.1975 23.6472 30.9713 23.6761 30.7356C23.7128 30.4436 23.5443 30.2338 23.4319 30.0952C23.4186 30.0787 22.0724 28.4472 20.9508 28.3524L20.7417 28.3344L20.5655 28.4471C20.0452 28.7784 19.5031 30.4687 19.3409 31.7784C19.0281 34.3111 19.1723 36.3983 19.7808 38.1591C20.4344 40.0505 21.429 41.3572 22.7361 42.0422C24.7096 43.0765 27.0043 42.9395 29.3888 41.6476C29.7242 43.9165 29.9855 46.0123 30.1665 47.8756C30.4161 50.4404 30.3982 53.4467 30.1235 55.0227C29.1072 60.8623 26.3507 63.1985 24.3664 64.4488C23.0295 65.2904 19.9157 65.8588 17.5493 64.7361C15.4666 63.7481 14.7264 61.9545 14.7241 60.7175C14.7201 58.2451 15.4557 57.6634 16.047 57.1953C16.1967 57.0778 16.3512 56.9549 16.4877 56.8132L16.5555 56.7412L16.5984 56.6535C17.0617 55.696 16.1601 54.2758 15.3192 53.806C15.0532 53.6558 14.6889 53.4515 14.2787 53.4772C13.512 53.5266 11.6313 54.7346 10.9192 56.7709C9.82647 59.8963 11.5027 62.7241 12.2748 63.7943C13.4823 65.4697 15.3551 66.8766 17.2848 67.5562C18.5898 68.0164 20.1965 68.3335 21.8798 68.3335C23.7868 68.3335 25.7922 67.9257 27.5613 66.857C31.5829 64.4284 33.5922 61.1207 34.4978 55.4377C35.2161 50.9329 34.1577 44.0269 33.4565 39.4571C33.2061 37.82 33.008 36.5275 32.9838 35.9098Z" fill="#141414"/>
<path d="M13.7565 46.5548C16.1901 45.6882 17.1745 44.1623 17.5442 43.3309C18.7844 40.5461 18.6128 36.5017 18.6113 36.4609C18.5754 35.6906 15.6543 33.0921 14.872 32.9566C14.5171 32.8956 14.1941 33.0663 14.0655 33.3818C13.9859 33.5776 13.9796 33.6777 14.0935 35.6522C14.1606 36.8195 14.2441 38.2733 14.2128 38.8613C14.1083 40.8514 13.5397 42.2857 12.5421 43.1085C11.0281 44.2578 9.56717 43.5446 8.70449 42.4939C7.06026 40.4897 6.07434 36.5393 5.77561 30.7529L5.75533 30.3833C5.67108 29.0399 5.63442 27.7144 5.60635 26.4594C5.47843 24.2462 5.42461 15.6593 6.0252 11.4803C6.5127 8.09102 7.21002 5.65465 8.02823 4.45211C8.52275 3.77648 9.55235 2.78219 10.2099 2.99671C10.7504 3.17285 11.0531 5.2718 10.2933 8.1607C10.0359 9.13855 10.2458 9.45719 11.0086 9.91831L11.0717 9.95589C11.3424 10.1195 12.4227 10.4045 13.5108 9.87134L13.7339 9.76173L13.8205 9.52765C14.3969 7.96889 14.659 6.55184 14.62 5.19587C14.5763 3.65512 14.0093 2.42753 12.8853 1.445C11.284 0.0443908 8.70372 -0.257025 6.88554 0.74352C6.08916 1.18116 3.98005 3.13214 2.90053 6.07349C1.68452 9.38673 1.44584 13.5846 1.31714 15.8402L1.30076 16.1376C1.11747 19.2951 0.654922 30.2111 2.39119 38.0964C2.9177 40.4905 4.90278 43.8829 8.01654 45.6749C9.47669 46.5158 10.9002 46.8164 12.0538 46.8155C12.7301 46.8155 13.3135 46.713 13.7565 46.5548Z" fill="#141414"/>
<path d="M102.55 41.1529C102.321 40.4679 101.65 40.0225 100.71 39.9308C100.649 39.9237 99.2206 39.7946 98.8375 40.4679C98.6994 40.7129 98.7167 41.0057 98.8828 41.2328C99.2369 41.7189 100.252 43.9792 99.1956 44.9938C97.6831 46.4509 95.6973 45.5825 94.8588 44.9203C93.6334 43.9518 92.7762 41.8254 92.4587 40.706C91.9805 39.1863 91.4884 37.7481 90.3083 35.5302C88.8114 32.7196 86.7671 30.8218 85.6548 30.6128C85.0986 30.5063 84.5558 30.6785 84.1689 31.0832C83.7571 31.5131 83.5933 32.1324 83.7321 32.7375L83.7516 32.8057C84.4396 34.7543 84.4146 36.7789 84.1775 37.5938C83.9872 38.2468 82.9295 40.2737 81.2026 41.03C80.29 41.4285 79.3329 41.3839 78.3595 40.8953C77.9056 40.6676 77.1022 39.9104 76.7488 38.7588C76.3962 37.6135 76.5741 36.3914 77.2761 35.1286C77.755 34.2666 79.1497 33.0507 79.6255 33.1987C79.9233 33.2911 79.9842 33.4234 80.0052 33.4664C80.1067 33.6848 80.049 34.0567 79.836 34.5711L79.8049 34.647C79.7074 34.8984 79.4102 35.6617 79.882 36.1886C80.3501 36.7131 81.1199 36.5041 81.4498 36.414L81.5809 36.3788C82.9202 35.92 83.3514 34.7284 83.1861 33.8149C82.9896 32.7306 82.13 31.5436 81.6105 31.1373C79.2495 29.2889 76.3066 29.8651 74.7348 31.3432C73.4501 32.5513 72.8231 34.4395 72.7201 35.1645C72.6311 35.7932 72.5369 37.7779 73.1623 39.3851C74.174 41.9836 76.3315 43.2472 76.9672 43.5721C80.0763 45.17 82.9692 45.0252 85.5698 43.1399C86.7133 42.3109 87.4371 41.2312 87.8747 40.3239C88.0268 40.7615 88.196 41.2704 88.3653 41.8106C89.4581 45.289 91.8113 47.4522 93.1264 48.0566C94.2745 48.5842 95.4524 48.8082 96.5427 48.8074C98.134 48.8074 99.5357 48.3314 100.369 47.633C102.819 45.5779 103.105 42.9458 102.55 41.1529Z" fill="#141414"/>
<path d="M49.7038 30.6273C47.2187 28.5667 45.0527 29.0301 43.8889 29.2784L43.7103 29.3167L43.6276 29.3402C41.3757 30.1435 40.1176 31.5613 39.3891 32.6056C39.2456 32.0937 39.0435 31.5871 38.7768 31.2239C38.237 30.4895 36.9977 29.7199 35.9509 29.7669L35.1709 29.799L35.3753 30.5545C35.7231 31.8408 36.1101 35.0969 36.2012 36.6642C36.3339 38.9323 36.2177 41.2059 36.1491 42.5665C36.1249 43.0441 36.1085 43.3658 36.1093 43.5601C36.0897 43.9507 36.2543 44.3422 36.5983 44.7241C37.22 45.4132 38.4235 46.0214 38.9718 46.0355L39.0085 46.0371L39.0444 46.034C39.6864 45.9761 40.0903 45.3818 40.517 42.2971C40.6692 41.198 41.0264 38.6254 42.2743 36.3174C43.4163 34.2051 44.601 32.8844 45.5254 32.6926C46.0081 32.5931 46.6985 32.5931 47.2476 33.1639C47.8272 33.7659 48.6406 35.4303 47.5799 39.8084C47.2968 40.9803 46.4505 43.019 45.3827 44.6459C44.8499 45.4578 43.9264 46.6102 43.1846 47.5364C42.442 48.4625 42.0138 49.0011 41.8539 49.2893C41.6643 49.6313 41.7619 50.2311 41.9671 50.6131C42.187 51.0249 42.5489 51.2715 42.9849 51.3053C43.0208 51.3084 43.0574 51.3092 43.0941 51.3092C44.1136 51.3092 45.5441 50.2961 46.0269 49.8905C48.2094 48.0499 50.8738 45.3943 52.1016 41.1416C53.674 35.7012 51.2209 31.8847 49.7038 30.6273Z" fill="#141414"/>
<path d="M86.1625 20.9015C85.8786 21.2616 85.6805 21.639 85.4379 22.0211C85.1376 22.4947 84.6408 22.8322 84.1096 23.0076C83.4958 23.2111 82.6994 23.4624 82.0535 23.4624C81.357 23.4632 80.3453 22.9645 80.3563 23.0882C80.3142 22.5958 80.1659 22.7805 79.4554 22.6998C78.2409 22.645 77.3298 21.0409 77.1177 20.0451C76.8588 18.8221 76.7956 17.7957 77.1902 16.6245C77.6326 15.3069 79.1738 14.3423 80.4966 14.037C81.0278 13.9149 81.6199 13.7607 82.1612 13.7333C82.7954 13.7012 83.5379 13.8907 84.1096 14.1443C84.6057 14.3643 84.9692 14.7425 85.3709 15.1182C85.7819 15.5026 86.0222 16.1344 86.2421 16.6417C86.5463 17.3472 86.7133 18.0384 86.7226 18.8111C86.732 19.6536 86.6868 20.2377 86.1625 20.9015ZM87.3451 16.5838C86.8731 15.3735 86.3661 14.3831 85.2001 13.7591C84.2789 13.2659 83.0878 12.8063 82.0193 12.952C80.4842 13.161 79.1987 13.1853 77.975 14.1725C76.7995 15.1198 76.4587 15.9943 76.0413 17.4153C75.6747 18.6702 76.0788 20.2001 76.6871 21.347C77.2206 22.353 78.3416 23.7677 79.5342 23.7552C79.5747 23.7544 79.613 23.7497 79.648 23.7419C80.1652 24.1811 81.1503 24.2108 81.7509 24.2806C83.034 24.4308 84.2703 23.9509 85.3818 23.2878C85.7804 23.0506 86.1025 22.5925 86.3054 22.1863C86.6024 21.5897 87.1181 21.1474 87.3685 20.5422C87.8755 19.3153 87.8115 17.7833 87.3451 16.5838Z" fill="#141414"/>
<path d="M83.9432 16.703C83.1054 16.6248 81.4885 17.4851 80.9043 18.1647C80.5384 17.3075 81.1359 16.3045 81.2982 15.9976C81.6039 15.4199 82.639 14.9462 83.2029 15.3799C83.7365 15.7902 84.2575 14.8796 83.731 14.4741C82.6734 13.6606 80.877 14.4819 80.3498 15.571C79.8459 16.6059 79.7577 18.2242 80.7568 18.9155C80.7624 18.9374 80.7701 18.9586 80.7756 18.9805C80.7351 19.3422 80.2421 19.2146 79.3529 19.2843C78.4644 19.3539 77.8374 18.4794 77.6806 17.9196C77.5238 17.3598 78.0464 16.678 77.5932 16.7485C77.14 16.8181 77.1907 18.4692 78.012 19.2928C78.4723 19.7555 80.4682 19.7038 80.9277 19.2928C81.4963 19.4416 81.0361 20.187 80.7818 20.4382C80.4542 20.7632 79.5627 21.0293 79.1859 20.5455C78.7726 20.0139 78.0378 20.7616 78.4473 21.2877C79.5658 22.7251 81.646 21.1522 82.0555 19.5911C82.0813 19.5801 82.107 19.5716 82.132 19.5583C82.3933 19.8565 82.618 20.1909 82.7459 20.5698C82.827 20.8124 82.9681 21.7879 82.6811 22.0299C82.3504 21.8028 81.7654 22.3384 82.2014 22.6593C82.8902 23.1666 83.5454 22.1105 83.6218 21.5054C83.8137 19.9834 82.5048 17.8335 82.4479 17.7623C82.781 17.5916 83.419 17.7294 83.7224 17.7427C84.5344 17.7787 84.912 18.4051 84.9112 19.1442C84.9112 19.819 85.9563 19.8205 85.9571 19.1442C85.9571 17.9329 85.2427 16.8243 83.9432 16.703Z" fill="#141414"/>
</svg>
