<svg width="43" height="66" viewBox="0 0 43 66" fill="none" xmlns="http://www.w3.org/2000/svg">
<circle cx="18" cy="48" r="18" fill="#20A0E0"/>
<path d="M29.9393 48.0607C30.5251 48.6464 31.4749 48.6464 32.0607 48.0607L41.6066 38.5147C42.1924 37.9289 42.1924 36.9792 41.6066 36.3934C41.0208 35.8076 40.0711 35.8076 39.4853 36.3934L31 44.8787L22.5147 36.3934C21.9289 35.8076 20.9792 35.8076 20.3934 36.3934C19.8076 36.9792 19.8076 37.9289 20.3934 38.5147L29.9393 48.0607ZM29.5 6.55671e-08L29.5 23.5L32.5 23.5L32.5 -6.55671e-08L29.5 6.55671e-08ZM29.5 23.5L29.5 47L32.5 47L32.5 23.5L29.5 23.5Z" fill="#292929"/>
</svg>
