<svg width="22" height="22" viewBox="0 0 22 22" fill="none" xmlns="http://www.w3.org/2000/svg">
<path d="M11 0.5C5.20156 0.5 0.5 5.20156 0.5 11C0.5 16.7984 5.20156 21.5 11 21.5C16.7984 21.5 21.5 16.7984 21.5 11C21.5 5.20156 16.7984 0.5 11 0.5ZM15.1367 14.2273L14.4664 15.1414C14.4518 15.1613 14.4335 15.1781 14.4124 15.1909C14.3913 15.2037 14.3678 15.2122 14.3434 15.2159C14.319 15.2196 14.2942 15.2184 14.2702 15.2125C14.2463 15.2065 14.2237 15.1959 14.2039 15.1813L10.3273 12.3547C10.3032 12.3373 10.2836 12.3145 10.2701 12.2879C10.2566 12.2614 10.2497 12.2321 10.25 12.2023V5.75C10.25 5.64687 10.3344 5.5625 10.4375 5.5625H11.5648C11.668 5.5625 11.7523 5.64687 11.7523 5.75V11.5508L15.0945 13.9672C15.1789 14.0258 15.1977 14.143 15.1367 14.2273Z" fill="black"/>
</svg>
