<svg width="20" height="20" viewBox="0 0 20 20" fill="none" xmlns="http://www.w3.org/2000/svg">
<path d="M10 7.39646C8.56641 7.39646 7.39649 8.56638 7.39649 9.99997C7.39649 11.4336 8.56641 12.6035 10 12.6035C11.4336 12.6035 12.6035 11.4336 12.6035 9.99997C12.6035 8.56638 11.4336 7.39646 10 7.39646ZM17.8086 9.99997C17.8086 8.92185 17.8184 7.85349 17.7578 6.77731C17.6973 5.52731 17.4121 4.41794 16.498 3.50388C15.582 2.58786 14.4746 2.30466 13.2246 2.24411C12.1465 2.18356 11.0781 2.19333 10.002 2.19333C8.92383 2.19333 7.85547 2.18356 6.7793 2.24411C5.5293 2.30466 4.41992 2.58981 3.50586 3.50388C2.58984 4.41989 2.30664 5.52731 2.24609 6.77731C2.18555 7.85544 2.19531 8.9238 2.19531 9.99997C2.19531 11.0761 2.18555 12.1465 2.24609 13.2226C2.30664 14.4726 2.5918 15.582 3.50586 16.4961C4.42188 17.4121 5.5293 17.6953 6.7793 17.7558C7.85742 17.8164 8.92578 17.8066 10.002 17.8066C11.0801 17.8066 12.1484 17.8164 13.2246 17.7558C14.4746 17.6953 15.584 17.4101 16.498 16.4961C17.4141 15.58 17.6973 14.4726 17.7578 13.2226C17.8203 12.1465 17.8086 11.0781 17.8086 9.99997V9.99997ZM10 14.0058C7.7832 14.0058 5.99414 12.2168 5.99414 9.99997C5.99414 7.78317 7.7832 5.99411 10 5.99411C12.2168 5.99411 14.0059 7.78317 14.0059 9.99997C14.0059 12.2168 12.2168 14.0058 10 14.0058ZM14.1699 6.7656C13.6523 6.7656 13.2344 6.34763 13.2344 5.83005C13.2344 5.31247 13.6523 4.8945 14.1699 4.8945C14.6875 4.8945 15.1055 5.31247 15.1055 5.83005C15.1056 5.95295 15.0815 6.07467 15.0346 6.18825C14.9876 6.30182 14.9187 6.40502 14.8318 6.49192C14.7449 6.57883 14.6417 6.64773 14.5281 6.6947C14.4145 6.74166 14.2928 6.76575 14.1699 6.7656V6.7656Z" fill="#20A0E0"/>
</svg>
