<svg width="320" height="327" viewBox="0 0 320 327" fill="none" xmlns="http://www.w3.org/2000/svg">
<path d="M160.025 48.0555L185.403 127.937H267.529L201.088 177.307L226.466 257.189L160.025 207.819L93.5831 257.189L118.962 177.307L52.5199 127.937H134.646L160.025 48.0555Z" fill="#20A0E0"/>
<path d="M189.124 51.8274L193.423 135.709L272.754 157.449L196.079 187.551L200.377 271.433L148.691 206.155L72.0159 236.257L116.747 165.811L65.0609 100.533L144.393 122.273L189.124 51.8274Z" fill="#20A0E0"/>
<path d="M216.388 63.3771L199.312 145.539L270.439 187.537L188.758 196.317L171.683 278.479L138.277 201.744L56.5967 210.524L117.632 154.319L84.2261 77.5836L155.353 119.582L216.388 63.3771Z" fill="#20A0E0"/>
<path d="M239.8 81.75L202.513 156.592L260.588 215.987L179.469 202.847L142.183 277.689L129.335 194.726L48.2155 181.586L121.394 143.452L108.546 60.489L166.621 119.884L239.8 81.75Z" fill="#20A0E0"/>
<path d="M257.764 105.694L202.808 168.116L243.874 240.859L168.844 206.695L113.888 269.117L122.473 185.58L47.4429 151.415L127.779 133.951L136.364 50.4145L177.429 123.158L257.764 105.694Z" fill="#20A0E0"/>
<g clip-path="url(#clip0_1_119)">
<path d="M154.987 146.521C155.224 146.203 155.395 145.84 155.491 145.452C155.604 145.041 155.641 144.611 155.599 144.186C155.586 143.992 155.531 143.803 155.439 143.633C155.347 143.463 155.219 143.316 155.065 143.203L154.065 147.127C154.405 147.104 154.713 146.9 154.987 146.521Z" fill="white"/>
<path d="M145.19 162.367C144.321 165.779 144.007 167.902 144.247 168.737C144.825 168.079 145.514 166.182 146.313 163.045C147.045 160.171 147.288 158.351 147.044 157.585C146.484 158.123 145.866 159.717 145.19 162.367Z" fill="white"/>
<path d="M142.964 146.163L141.97 150.066C142.142 150.07 142.313 150.035 142.47 149.963C142.627 149.891 142.767 149.784 142.878 149.65C143.185 149.319 143.4 148.91 143.501 148.466C143.608 148.055 143.62 147.624 143.536 147.207C143.471 146.801 143.268 146.432 142.964 146.163Z" fill="white"/>
<path d="M166.697 132.747C166.802 132.776 166.913 132.773 167.016 132.738C167.119 132.702 167.21 132.637 167.276 132.549C167.343 132.461 167.382 132.355 167.389 132.244C167.397 132.133 167.372 132.022 167.318 131.926C167.264 131.83 167.183 131.752 167.086 131.703C166.988 131.653 166.879 131.635 166.771 131.649C166.663 131.663 166.562 131.71 166.48 131.784C166.399 131.857 166.34 131.953 166.312 132.061C166.275 132.204 166.295 132.356 166.367 132.484C166.439 132.613 166.558 132.707 166.697 132.747Z" fill="white"/>
<path d="M149.248 146.636L149.731 144.391L150.201 142.126L150.05 142.086C149.966 142.368 149.875 142.684 149.773 143.034L149.526 143.936C149.317 144.659 149.143 145.251 149.003 145.712L147.893 149.23L148.677 149.439L149.248 146.636Z" fill="white"/>
<path d="M144.388 143.553C144.491 143.389 144.582 143.218 144.661 143.04C144.724 142.888 144.777 142.731 144.817 142.571C144.956 142.092 144.98 141.586 144.889 141.095C144.809 140.712 144.657 140.47 144.432 140.37L143.461 144.181C143.651 144.152 143.833 144.081 143.993 143.972C144.153 143.864 144.288 143.721 144.388 143.553V143.553Z" fill="white"/>
<path d="M151.717 132.913C152.255 130.801 152.439 129.486 152.27 128.967C151.901 129.246 151.467 130.367 150.967 132.331C150.402 134.547 150.225 135.873 150.434 136.309C150.797 135.978 151.224 134.846 151.717 132.913Z" fill="white"/>
<path d="M156.661 131.927C156.873 131.094 156.865 130.494 156.638 130.125C156.319 130.236 156.06 130.682 155.861 131.464C155.644 132.315 155.692 133.005 156.004 133.533C156.316 133.042 156.539 132.498 156.661 131.927V131.927Z" fill="white"/>
<path d="M160.551 148.003C160.788 147.685 160.959 147.322 161.056 146.935C161.168 146.523 161.205 146.093 161.164 145.668C161.151 145.474 161.096 145.285 161.004 145.116C160.911 144.946 160.783 144.799 160.629 144.685L159.63 148.61C159.971 148.579 160.278 148.377 160.551 148.003Z" fill="white"/>
<path d="M180.733 112.875L163.999 108.417L163.424 110.509L180.239 114.988L180.733 112.875Z" fill="white"/>
<path d="M179.743 117.103L162.849 112.602L162.273 114.696L179.247 119.217L179.743 117.103Z" fill="white"/>
<path d="M178.751 121.33L161.696 116.787L161.121 118.88L178.255 123.445L178.751 121.33Z" fill="white"/>
<path d="M181.488 109.657C181.506 109.585 181.546 109.521 181.604 109.476C181.661 109.431 181.732 109.408 181.805 109.41C182.024 109.412 182.327 109.315 182.455 108.809C182.483 108.703 182.489 108.591 182.471 108.482C182.454 108.373 182.414 108.269 182.354 108.177C182.323 108.13 182.305 108.075 182.301 108.018C182.297 107.961 182.308 107.905 182.333 107.853C182.357 107.802 182.395 107.759 182.441 107.727C182.487 107.695 182.541 107.676 182.596 107.673L182.609 107.676C182.676 107.672 182.739 107.647 182.791 107.603C182.842 107.56 182.879 107.501 182.896 107.435L184.195 102.331C184.464 101.276 182.28 100.064 180.052 99.1224C177.202 97.9157 174.203 97.1168 171.14 96.7484C168.752 96.4603 166.261 96.4272 165.992 97.4826L164.694 102.581C164.677 102.647 164.681 102.717 164.705 102.78C164.729 102.844 164.773 102.898 164.829 102.935L164.842 102.938C164.889 102.969 164.927 103.012 164.952 103.063C164.978 103.113 164.99 103.17 164.987 103.227C164.984 103.284 164.967 103.339 164.936 103.387C164.906 103.435 164.864 103.474 164.814 103.5C164.718 103.55 164.634 103.621 164.567 103.707C164.499 103.794 164.451 103.894 164.424 104.001C164.295 104.51 164.51 104.749 164.704 104.849C164.769 104.883 164.82 104.939 164.849 105.007C164.878 105.075 164.884 105.152 164.864 105.223L164.563 106.315L181.23 110.755L181.488 109.657Z" fill="white"/>
<path d="M175.706 138.096C175.995 137.889 176.224 137.454 176.393 136.789C176.461 136.519 176.499 136.242 176.508 135.963C176.538 135.732 176.51 135.497 176.427 135.28C176.133 135.515 175.896 135.971 175.723 136.651C175.66 136.894 175.624 137.144 175.613 137.395C175.595 137.633 175.627 137.872 175.706 138.096V138.096Z" fill="white"/>
<path d="M169.513 169.267L170.069 166.682L170.609 164.072L170.443 164.028C170.346 164.354 170.24 164.717 170.124 165.121L169.839 166.159C169.598 166.991 169.397 167.673 169.234 168.205L167.956 172.256L168.862 172.498L169.513 169.267Z" fill="white"/>
<path d="M181.104 140.706C181.637 138.613 181.829 137.312 181.68 136.803C181.329 137.089 180.906 138.204 180.409 140.15C179.85 142.345 179.664 143.657 179.852 144.085C180.197 143.753 180.615 142.627 181.104 140.706Z" fill="white"/>
<path d="M185.715 139.658C185.925 138.83 185.928 138.237 185.723 137.88C185.423 137.994 185.175 138.439 184.977 139.214C184.763 140.057 184.797 140.737 185.08 141.254C185.378 140.763 185.593 140.223 185.715 139.658V139.658Z" fill="white"/>
<path d="M175.273 141.236C175.431 140.617 175.437 140.121 175.296 139.753C175.005 139.969 174.772 140.422 174.596 141.112C174.42 141.802 174.41 142.306 174.566 142.623C174.844 142.455 175.08 141.993 175.273 141.236Z" fill="white"/>
<path d="M189.804 137.216C189.963 136.558 189.894 135.863 189.606 135.252C189.318 134.64 188.83 134.151 188.227 133.868L180.728 130.333C177.492 128.816 177.618 126.343 177.644 126.068C177.647 126.054 177.65 126.04 177.655 126.026L177.766 125.556L160.546 120.969L160.427 121.437C160.424 121.451 160.421 121.466 160.416 121.48C160.309 121.726 159.241 123.95 155.69 123.663L147.444 123.005C146.783 122.951 146.124 123.135 145.581 123.525C145.038 123.915 144.646 124.487 144.471 125.141L144.454 125.207C143.886 127.44 123.119 210.435 123.119 210.435C123.119 210.435 122.414 213.286 125.508 214.402C128.602 215.518 144.558 219.838 144.558 219.838C144.558 219.838 160.545 224.032 163.78 224.596C167.014 225.161 167.758 222.325 167.758 222.325C167.758 222.325 189.215 139.514 189.783 137.281C189.795 137.257 189.798 137.238 189.804 137.216ZM183.586 139.064C183.86 137.986 184.276 137.204 184.832 136.718C185.272 136.33 185.698 136.19 186.111 136.3C186.699 136.456 187.059 136.953 187.19 137.788C187.3 138.582 187.246 139.39 187.03 140.161C186.732 141.332 186.101 142.557 185.136 143.836C184.243 145.025 183.35 145.9 182.458 146.462L181.948 145.125C182.852 144.438 183.633 143.596 184.255 142.636C183.465 141.607 183.242 140.416 183.586 139.064ZM181.238 135.359C181.351 135.291 181.473 135.24 181.601 135.207C181.756 135.176 181.915 135.181 182.068 135.221C182.549 135.349 182.863 135.795 183.01 136.559C183.193 137.574 183.036 139.059 182.537 141.013C181.909 143.477 181.155 144.973 180.274 145.502C180.171 145.568 180.058 145.617 179.939 145.647C179.799 145.691 179.649 145.694 179.507 145.656C179.199 145.577 178.935 145.376 178.772 145.098C178.247 144.187 178.304 142.477 178.944 139.969C179.592 137.426 180.356 135.89 181.237 135.36L181.238 135.359ZM162.38 191.432L161.463 195.033L158.899 194.349L156.842 202.426L159.44 203.118L158.505 206.788L152.25 205.122L159.337 177.295L165.626 178.97L164.691 182.642L162.058 181.941L159.815 190.749L162.38 191.432ZM162.444 161.435L162.965 159.389L167.931 160.712L167.404 162.778L165.941 162.388L162.477 175.99L160.438 175.447L163.907 161.825L162.444 161.435ZM164.347 176.488L170.125 161.147L172.354 161.741L169.945 177.979L167.866 177.425L168.468 174.58L167.307 174.27L166.398 177.034L164.347 176.488ZM172.619 160.324L176.084 146.721L179.16 147.541L178.701 149.341L177.415 148.998L176.319 153.305L177.571 153.639L177.123 155.398L175.871 155.064L174.866 159.009L176.135 159.348L175.678 161.141L172.619 160.324ZM174.633 162.491L176.672 163.035L172.682 178.703L170.64 178.159L174.633 162.491ZM176.653 143.541C176.738 143.488 176.832 143.454 176.931 143.44C177.03 143.426 177.13 143.433 177.226 143.46C177.425 143.511 177.596 143.64 177.701 143.82C177.753 143.91 177.787 144.009 177.8 144.112C177.813 144.215 177.805 144.32 177.777 144.42C177.753 144.519 177.71 144.612 177.65 144.693C177.59 144.775 177.515 144.842 177.428 144.893C177.25 144.997 177.039 145.026 176.841 144.972C176.744 144.947 176.653 144.903 176.574 144.841C176.495 144.78 176.428 144.702 176.38 144.613C176.324 144.527 176.287 144.43 176.271 144.328C176.255 144.227 176.261 144.123 176.287 144.023C176.311 143.921 176.356 143.825 176.419 143.742C176.482 143.659 176.562 143.59 176.653 143.541V143.541ZM174.465 136.129C174.618 135.446 174.95 134.819 175.427 134.316C175.869 133.854 176.317 133.684 176.771 133.804C177.224 133.925 177.539 134.262 177.714 134.815C177.923 135.442 177.916 136.213 177.693 137.127C177.449 138.082 177.003 138.755 176.352 139.156C176.741 139.973 176.818 140.909 176.569 141.781C176.409 142.515 176.053 143.189 175.542 143.729C175.081 144.195 174.631 144.369 174.195 144.252C173.714 144.124 173.379 143.741 173.191 143.103C173.004 142.376 173.015 141.61 173.223 140.89C173.482 139.872 173.956 139.142 174.643 138.701C174.258 138.035 174.199 137.176 174.467 136.124L174.465 136.129ZM171.233 145.435L175.546 146.584L175.089 148.379L173.818 148.04L170.811 159.848L169.04 159.376L172.051 147.55L170.78 147.211L171.233 145.435ZM171.758 137.862C171.931 137.907 172.087 138.004 172.206 138.141C172.325 138.277 172.402 138.447 172.427 138.628C172.452 138.809 172.424 138.993 172.346 139.158C172.268 139.323 172.144 139.46 171.99 139.553C171.836 139.645 171.659 139.689 171.48 139.679C171.302 139.668 171.13 139.604 170.988 139.493C170.845 139.383 170.738 139.232 170.679 139.06C170.62 138.887 170.613 138.7 170.658 138.523C170.687 138.405 170.739 138.294 170.81 138.197C170.881 138.099 170.971 138.017 171.073 137.955C171.175 137.893 171.289 137.853 171.407 137.836C171.524 137.819 171.644 137.826 171.76 137.856L171.758 137.862ZM169.637 144.906C170.027 145.019 170.398 145.191 170.738 145.417L170.276 147.229C170.192 147.155 170.102 147.089 170.006 147.03C169.899 146.956 169.781 146.899 169.656 146.863C169.501 146.814 169.336 146.807 169.178 146.842C169.019 146.876 168.872 146.951 168.75 147.06C168.45 147.329 168.246 147.692 168.166 148.091C168.01 148.705 168.02 149.925 168.197 151.749C168.277 152.444 168.32 153.144 168.324 153.844C168.331 154.578 168.247 155.31 168.072 156.022C167.82 157.013 167.364 157.707 166.704 158.104C166.427 158.275 166.119 158.386 165.797 158.429C165.476 158.472 165.15 158.446 164.839 158.353C164.467 158.243 164.112 158.082 163.783 157.873L164.265 155.983C164.487 156.167 164.743 156.303 165.018 156.385C165.698 156.566 166.144 156.24 166.356 155.407C166.524 154.748 166.511 153.54 166.316 151.784C166.104 150.05 166.129 148.667 166.39 147.636C166.964 145.384 168.047 144.471 169.639 144.896L169.637 144.906ZM162.656 135.885C162.662 136.536 162.8 137.179 163.061 137.773L162.548 137.637C162.57 137.719 162.585 137.797 162.61 137.873C162.725 138.223 162.924 138.538 163.19 138.788C163.281 138.872 163.389 138.932 163.507 138.964C163.625 138.995 163.749 138.997 163.867 138.968C164.091 138.922 164.288 138.79 164.419 138.599C164.61 138.325 164.752 138.019 164.838 137.694C165.055 136.94 165.27 136.179 165.485 135.433C165.563 135.128 165.657 134.827 165.745 134.524C165.763 134.454 165.763 134.453 165.692 134.432L164.744 134.161L164.326 134.05C164.306 134.046 164.288 134.036 164.274 134.022C164.26 134.008 164.25 133.989 164.246 133.969C164.173 133.721 164.095 133.476 164.018 133.229C164.012 133.21 164.008 133.191 164.004 133.172L164.062 133.188L165.937 133.687C165.982 133.699 166 133.69 166.011 133.645C166.059 133.457 166.122 133.273 166.175 133.086C166.177 133.075 166.177 133.065 166.174 133.055C166.172 133.045 166.167 133.035 166.16 133.027C165.999 132.891 165.885 132.706 165.833 132.499C165.78 132.293 165.793 132.074 165.869 131.875C165.922 131.703 166.021 131.549 166.155 131.43C166.288 131.312 166.451 131.232 166.625 131.202C166.721 131.187 166.817 131.18 166.914 131.179L166.958 131.174L167.236 131.249C167.251 131.253 167.263 131.268 167.277 131.276C167.453 131.357 167.603 131.489 167.707 131.655C167.812 131.821 167.868 132.015 167.868 132.212C167.875 132.452 167.8 132.688 167.657 132.878C167.513 133.068 167.31 133.202 167.081 133.256C167.057 133.26 167.035 133.271 167.018 133.288C167.001 133.306 166.99 133.328 166.988 133.353C166.944 133.523 166.901 133.692 166.868 133.865C166.844 133.96 166.848 133.943 166.928 133.964L168.787 134.459L168.837 134.473C168.831 134.483 168.824 134.492 168.816 134.501C168.611 134.691 168.409 134.882 168.203 135.063C168.192 135.071 168.179 135.077 168.166 135.079C168.152 135.082 168.138 135.082 168.125 135.078C167.815 134.996 167.503 134.912 167.192 134.83L166.763 134.715C166.723 134.705 166.706 134.715 166.699 134.756C166.692 134.798 166.668 134.88 166.652 134.943C166.382 136.106 166.111 137.269 165.841 138.432C165.781 138.661 165.775 138.901 165.822 139.132C165.857 139.324 165.963 139.494 166.12 139.606C166.256 139.696 166.41 139.755 166.57 139.78C166.731 139.806 166.895 139.796 167.051 139.753C167.351 139.672 167.623 139.508 167.837 139.277C167.877 139.239 167.915 139.195 167.958 139.149L167.416 138.886C168.052 138.601 168.466 138.079 168.846 137.533L168.875 137.588C169.044 137.965 169.121 138.378 169.1 138.791C169.099 138.806 169.102 138.82 169.107 138.833L168.864 139.787C168.844 139.809 168.83 139.816 168.801 139.79C168.701 139.696 168.596 139.607 168.494 139.514L168.465 139.497C168.443 139.54 168.422 139.582 168.404 139.624C168.24 139.982 167.988 140.289 167.672 140.516C167.316 140.767 166.911 140.935 166.484 141.006C166.27 141.045 166.054 141.064 165.837 141.066C165.655 141.076 165.477 141.119 165.31 141.192C165.011 141.313 164.738 141.492 164.505 141.718C164.492 141.73 164.476 141.738 164.459 141.742C164.442 141.746 164.424 141.745 164.408 141.739C164.391 141.734 164.376 141.724 164.365 141.711C164.353 141.697 164.345 141.681 164.341 141.664C164.241 141.245 164.021 140.866 163.71 140.575C163.633 140.509 163.543 140.458 163.463 140.395C163.306 140.27 163.145 140.148 162.997 140.014C162.725 139.769 162.492 139.483 162.304 139.166C162.133 138.881 162.008 138.569 161.935 138.244C161.89 138.047 161.868 137.846 161.871 137.645L161.362 137.837L161.348 137.823C161.567 137.045 162.027 136.362 162.659 135.874L162.656 135.885ZM154.892 189.441L153.975 193.042L151.412 192.359L149.355 200.435L151.953 201.128L151.019 204.798L144.762 203.131L151.849 175.304L158.14 176.98L157.205 180.652L154.572 179.95L152.33 188.755L154.892 189.441ZM158.974 163.201C159.193 162.69 159.382 162.164 159.537 161.628C159.658 161.211 159.803 160.668 159.973 160L160.309 158.681L162.349 159.225L161.725 161.595C161.119 163.873 160.265 165.425 159.162 166.252C159.533 166.786 159.664 167.752 159.554 169.152C159.457 170.308 159.26 171.453 158.966 172.574L158.374 174.897L156.281 174.339L156.963 171.662C157.033 171.387 157.099 171.124 157.143 170.869C157.282 170.219 157.381 169.644 157.441 169.137C157.602 167.751 157.469 166.93 157.04 166.674L155.165 174.037L153.106 173.488L157.095 157.825L159.154 158.374L157.395 165.281C157.986 165.006 158.512 164.313 158.974 163.201ZM161.356 157.324L164.82 143.721L166.59 144.193L163.126 157.796L161.356 157.324ZM159.355 142.265L160.309 142.52C161.415 142.814 162.18 143.334 162.605 144.08C163.12 144.959 163.222 146.008 162.91 147.228C162.591 148.481 161.941 149.33 160.96 149.774C161.615 150.836 161.58 153.308 160.855 157.191L159.048 156.709C159.366 155.406 159.547 154.072 159.59 152.73C159.64 151.414 159.501 150.629 159.173 150.374L157.655 156.338L155.889 155.868L159.355 142.265ZM150.733 168.846C150.747 170.028 151.056 170.699 151.659 170.858C151.874 170.909 152.099 170.896 152.307 170.82L151.775 172.907C151.448 173.064 151.075 173.085 150.733 172.967C149.602 172.665 148.93 171.646 148.716 169.907C148.516 168.271 148.745 166.187 149.402 163.658C149.94 161.545 150.719 159.861 151.738 158.605C152.759 157.321 153.768 156.812 154.763 157.077C155.122 157.177 155.448 157.373 155.708 157.644L155.202 159.633C155.124 159.556 155.038 159.49 154.943 159.437C154.853 159.375 154.754 159.327 154.65 159.296C153.505 158.991 152.462 160.688 151.52 164.387L151.204 165.625C150.914 166.674 150.755 167.757 150.733 168.846V168.846ZM150.327 154.386L153.791 140.783L154.743 141.037C155.849 141.332 156.615 141.852 157.04 142.598C157.553 143.477 157.655 144.525 157.344 145.745C157.025 146.998 156.375 147.847 155.394 148.291C156.049 149.353 156.014 151.826 155.289 155.708L153.484 155.227C153.804 153.925 153.988 152.592 154.033 151.25C154.083 149.934 153.944 149.149 153.616 148.894L152.097 154.858L150.327 154.386ZM148.343 164.026C147.387 167.779 146.238 170.059 144.895 170.865C144.713 170.985 144.508 171.065 144.294 171.102C144.08 171.138 143.861 171.13 143.651 171.077C142.572 170.789 142.059 169.559 142.11 167.387C142.142 166.5 142.236 165.617 142.392 164.744C142.509 164.019 142.656 163.309 142.832 162.613C143.847 158.624 145.059 156.207 146.467 155.362C146.647 155.255 146.847 155.186 147.054 155.159C147.26 155.133 147.47 155.149 147.671 155.208C147.88 155.267 148.075 155.369 148.244 155.507C148.414 155.646 148.554 155.818 148.656 156.014C149.453 157.407 149.349 160.077 148.343 164.026ZM159.753 134.658C159.926 134.704 160.082 134.801 160.201 134.938C160.32 135.074 160.397 135.243 160.422 135.425C160.446 135.606 160.418 135.79 160.34 135.955C160.263 136.119 160.139 136.257 159.985 136.349C159.831 136.442 159.653 136.486 159.475 136.475C159.296 136.465 159.125 136.4 158.982 136.29C158.84 136.18 158.732 136.029 158.673 135.856C158.615 135.684 158.607 135.497 158.653 135.32C158.713 135.083 158.863 134.88 159.069 134.756C159.275 134.632 159.521 134.597 159.753 134.658ZM154.36 131.287C154.636 130.201 155.069 129.416 155.659 128.933C156.127 128.547 156.583 128.413 157.029 128.532C157.666 128.701 158.062 129.211 158.215 130.06C158.348 130.86 158.303 131.68 158.084 132.46C157.783 133.641 157.125 134.871 156.11 136.15C155.166 137.337 154.22 138.208 153.272 138.763L152.702 137.4C153.654 136.727 154.481 135.884 155.142 134.912C154.273 133.859 154.012 132.651 154.36 131.287ZM149.625 154.199L147.823 153.719L148.346 151.25L147.339 150.981L146.55 153.381L144.762 152.904L149.776 139.587L151.716 140.104L149.625 154.199ZM151.77 127.491C151.893 127.424 152.025 127.375 152.162 127.346C152.33 127.317 152.502 127.324 152.666 127.368C153.186 127.506 153.531 127.965 153.702 128.743C153.911 129.774 153.765 131.275 153.263 133.247C152.63 135.735 151.844 137.238 150.905 137.755C150.794 137.821 150.674 137.868 150.549 137.896C150.396 137.938 150.235 137.938 150.083 137.897C149.755 137.813 149.469 137.608 149.281 137.321C148.703 136.388 148.736 134.656 149.38 132.127C150.034 129.557 150.831 128.012 151.77 127.491ZM138.743 165.653C138.757 166.834 139.066 167.505 139.669 167.664C139.884 167.715 140.109 167.702 140.317 167.626L139.785 169.713C139.457 169.87 139.083 169.891 138.741 169.772C137.613 169.472 136.941 168.452 136.726 166.714C136.526 165.077 136.755 162.994 137.412 160.464C137.95 158.351 138.729 156.667 139.748 155.411C140.772 154.129 141.779 153.619 142.768 153.882C143.127 153.982 143.453 154.178 143.713 154.449L143.207 156.438C143.129 156.361 143.042 156.295 142.948 156.242C142.858 156.18 142.759 156.132 142.655 156.101C141.513 155.797 140.471 157.495 139.529 161.196L139.213 162.435C138.923 163.483 138.765 164.564 138.743 165.653V165.653ZM143.74 151.519C142.963 152.053 142.061 152.184 141.036 151.912L139.682 151.551L143.146 137.948L144.283 138.251C145.452 138.562 146.226 139.212 146.605 140.201C146.9 141.004 146.919 141.91 146.662 142.918C146.51 143.564 146.216 144.168 145.803 144.682C145.506 145.03 145.143 145.311 144.735 145.51C145.512 146.385 145.713 147.557 145.338 149.028C145.048 150.166 144.516 150.996 143.74 151.519V151.519ZM146.643 135.605C146.831 135.498 147.052 135.471 147.259 135.53C147.471 135.584 147.656 135.718 147.776 135.905C147.833 135.994 147.871 136.095 147.887 136.2C147.903 136.305 147.897 136.413 147.869 136.515C147.844 136.616 147.798 136.71 147.735 136.791C147.671 136.873 147.592 136.939 147.501 136.986C147.307 137.09 147.082 137.116 146.87 137.057C146.661 137.006 146.481 136.872 146.368 136.686C146.306 136.601 146.265 136.503 146.246 136.4C146.227 136.296 146.231 136.19 146.258 136.088C146.283 135.983 146.33 135.886 146.397 135.802C146.463 135.719 146.547 135.651 146.643 135.605V135.605ZM145.648 127.783L148.137 126.136L145.471 136.601L144.038 136.22L146.106 128.1L145.608 127.968L145.648 127.783ZM138.483 171.737L135.492 188.227L141.154 172.448L144.365 173.303L141.727 190.111L147.031 174.013L150.681 174.986L140.281 202.12L137.233 201.309L139.552 185.462L134.019 200.453L130.976 199.642L134.788 170.761L138.483 171.737ZM127.131 212.142L125.913 211.803L127.329 200.325L128.822 200.722L127.714 207.229L129.771 200.975L131.259 201.372L127.131 212.142ZM131.239 213.16L128.932 212.545L131.745 201.499L133.197 201.886L130.759 211.461L131.613 211.689L131.239 213.16ZM133.979 213.89L134.404 211.883L133.597 211.668L132.947 213.615L131.496 213.228L135.568 202.414L137.142 202.834L135.444 214.28L133.979 213.89ZM138.694 214.375C138.393 214.553 138.059 214.665 137.713 214.705C137.368 214.746 137.018 214.714 136.685 214.61L136.013 214.432L138.826 203.385L139.261 203.501C140.108 203.738 140.706 204.159 141.054 204.765C141.722 205.931 141.77 207.643 141.196 209.9C140.6 212.241 139.766 213.734 138.693 214.377L138.694 214.375ZM141.752 215.96L140.314 215.577L143.127 204.531L144.565 204.914L141.752 215.96ZM144.8 216.846L143.583 216.508L145 205.03L146.493 205.428L145.387 211.935L147.444 205.681L148.922 206.075L144.8 216.846ZM149.276 217.652C149.147 217.738 149.002 217.795 148.851 217.821C148.7 217.847 148.545 217.841 148.396 217.804C147.636 217.602 147.273 216.734 147.306 215.202C147.328 214.578 147.394 213.957 147.503 213.343C147.585 212.832 147.689 212.331 147.815 211.84C148.531 209.028 149.385 207.323 150.377 206.725C150.504 206.647 150.646 206.597 150.793 206.578C150.94 206.558 151.089 206.57 151.232 206.612C151.379 206.653 151.517 206.725 151.636 206.823C151.756 206.921 151.855 207.043 151.926 207.181C152.488 208.161 152.415 210.043 151.705 212.828C151.031 215.478 150.22 217.087 149.275 217.654L149.276 217.652ZM153.145 218.46C152.92 218.6 152.669 218.69 152.408 218.726C152.147 218.761 151.882 218.74 151.629 218.665C151.327 218.576 151.039 218.444 150.772 218.274L151.161 216.747C151.341 216.896 151.549 217.007 151.772 217.073C152.325 217.22 152.688 216.954 152.861 216.276C152.998 215.739 152.987 214.759 152.829 213.334C152.656 211.925 152.676 210.805 152.888 209.972C153.355 208.14 154.234 207.395 155.527 207.74C155.845 207.832 156.146 207.974 156.422 208.159L156.047 209.629C155.978 209.569 155.904 209.514 155.827 209.467C155.74 209.406 155.644 209.36 155.542 209.331C155.416 209.292 155.282 209.287 155.153 209.316C155.024 209.345 154.904 209.408 154.805 209.497C154.563 209.716 154.397 210.009 154.332 210.333C154.205 210.833 154.213 211.823 154.357 213.304C154.42 213.868 154.453 214.436 154.455 215.004C154.462 215.6 154.393 216.195 154.251 216.773C154.046 217.577 153.676 218.14 153.141 218.461L153.145 218.46ZM159.948 210.568L158.918 210.294L156.476 219.882L155.038 219.499L157.483 209.899L156.441 209.621L156.809 208.177L160.309 209.11L159.948 210.568ZM160.733 220.704C160.605 220.79 160.461 220.847 160.309 220.874C160.158 220.9 160.004 220.894 159.855 220.856C159.095 220.654 158.732 219.787 158.765 218.254C158.787 217.63 158.853 217.009 158.962 216.395C159.045 215.885 159.149 215.384 159.272 214.892C159.989 212.08 160.843 210.375 161.836 209.777C161.964 209.7 162.105 209.649 162.252 209.63C162.399 209.61 162.548 209.622 162.691 209.664C162.838 209.706 162.976 209.778 163.095 209.876C163.215 209.974 163.313 210.095 163.386 210.233C163.948 211.213 163.874 213.095 163.165 215.88C162.484 218.529 161.671 220.137 160.724 220.704L160.733 220.704ZM166.167 222.463L164.68 222.067L165.161 220.182C165.21 219.987 165.257 219.802 165.289 219.624C165.386 219.167 165.455 218.762 165.496 218.411C165.608 217.433 165.514 216.855 165.214 216.676L163.894 221.858L162.442 221.471L165.255 210.425L166.707 210.812L165.466 215.683C165.883 215.487 166.253 214.999 166.579 214.217C166.734 213.856 166.867 213.485 166.977 213.107C167.062 212.814 167.163 212.432 167.283 211.958L167.52 211.029L168.958 211.412L168.517 213.088C168.092 214.69 167.489 215.784 166.71 216.372C166.969 216.746 167.061 217.428 166.987 218.417C166.919 219.23 166.782 220.037 166.575 220.826L166.167 222.463ZM169.419 209.693L165.684 208.699L166.894 203.948C167.019 203.457 167.126 202.989 167.217 202.541C167.462 201.386 167.637 200.362 167.744 199.47C168.028 197.009 167.79 195.552 167.031 195.099L163.701 208.174L160.051 207.202L167.137 179.375L170.787 180.347L167.662 192.62C168.712 192.127 169.647 190.895 170.465 188.924C170.857 188.014 171.192 187.081 171.469 186.129C171.682 185.391 171.94 184.427 172.243 183.237L172.841 180.888L176.464 181.854L175.352 186.076C174.275 190.12 172.758 192.876 170.801 194.345C171.46 195.293 171.692 197.01 171.497 199.497C171.327 201.546 170.981 203.576 170.462 205.563L169.419 209.693ZM177.016 179.861L173.736 178.987L177.726 163.321L179.785 163.869L176.328 177.443L177.539 177.766L177.016 179.861ZM179.584 162.18C179.904 160.877 180.088 159.544 180.133 158.202C180.183 156.887 180.044 156.101 179.716 155.846L178.197 161.81L176.425 161.338L179.89 147.735L180.842 147.989C181.948 148.283 182.714 148.804 183.139 149.55C183.652 150.428 183.754 151.477 183.443 152.697C183.124 153.95 182.474 154.799 181.492 155.243C182.15 156.306 182.115 158.778 181.388 162.66L179.584 162.18Z" fill="white"/>
<path d="M149.481 211.665C148.868 214.069 148.647 215.566 148.816 216.155C149.225 215.689 149.711 214.351 150.273 212.142C150.789 210.116 150.961 208.833 150.789 208.293C150.394 208.672 149.958 209.796 149.481 211.665Z" fill="white"/>
<path d="M160.932 214.715C160.319 217.12 160.097 218.616 160.266 219.205C160.676 218.739 161.162 217.401 161.724 215.192C162.24 213.166 162.412 211.883 162.24 211.343C161.845 211.722 161.409 212.846 160.932 214.715Z" fill="white"/>
<path d="M181.165 150.155L180.166 154.08C180.507 154.05 180.814 153.845 181.089 153.467C181.326 153.149 181.497 152.785 181.593 152.398C181.705 151.986 181.742 151.557 181.702 151.131C181.687 150.939 181.631 150.751 181.538 150.583C181.446 150.414 181.319 150.268 181.165 150.155V150.155Z" fill="white"/>
<path d="M135.53 206.318L135.912 204.479L135.791 204.447C135.732 204.677 135.647 204.932 135.566 205.217L135.366 205.948C135.197 206.536 135.055 207.017 134.94 207.391L134.035 210.246L134.673 210.416L135.137 208.139L135.53 206.318Z" fill="white"/>
<path d="M140.079 207.397C140.156 206.527 140.061 205.934 139.794 205.616L137.911 213.013C138.231 212.931 138.55 212.571 138.867 211.93C139.149 211.343 139.37 210.726 139.525 210.091L139.836 208.869C139.863 208.719 139.897 208.574 139.932 208.434C139.997 208.059 140.046 207.713 140.079 207.397Z" fill="white"/>
</g>
<defs>
<clipPath id="clip0_1_119">
<rect width="46.9148" height="126.109" fill="white" transform="matrix(0.966307 0.257392 -0.246783 0.969071 153.016 91.5857)"/>
</clipPath>
</defs>
</svg>
