<svg width="23" height="32" viewBox="0 0 23 32" fill="none" xmlns="http://www.w3.org/2000/svg">
<path d="M2.33619 16.6836C2.79161 18.5673 3.70491 20.2015 4.85701 21.7458H3.28888C3.41197 21.9654 3.5129 22.1775 3.64091 22.3696C4.22333 23.2809 5.02579 24.0263 5.97217 24.5352C6.29156 24.7048 6.64676 24.7934 7.00733 24.7934C7.36791 24.7934 7.72311 24.7048 8.04249 24.5352C8.64906 24.2394 9.11923 23.7173 9.3546 23.0781C9.70697 22.1556 9.8905 21.1757 9.89618 20.1865C9.97003 17.8812 10.0316 15.5759 10.1005 13.2705L10.1817 10.4912C10.1817 10.2791 10.1817 10.2716 9.96757 10.2691L7.04549 10.2292C6.61961 10.2292 6.19373 10.2118 5.76539 10.2093C5.70643 10.2135 5.64756 10.1999 5.59627 10.1701C5.54498 10.1403 5.50359 10.0958 5.47736 10.0421C5.08595 9.39591 4.68468 8.75472 4.28588 8.11352L4.19972 7.96133C4.27604 7.96133 4.32773 7.94636 4.37943 7.94636C6.29466 7.94636 8.20989 7.92889 10.1227 7.9264C10.2581 7.9264 10.3024 7.88648 10.3073 7.74926C10.3221 7.17792 10.3516 6.60658 10.3688 6.03524C10.3665 6.00498 10.3576 5.97563 10.3427 5.94931C10.3278 5.92299 10.3073 5.90035 10.2827 5.88305C9.08134 5.22439 8.49791 4.19648 8.60131 2.82676C8.62989 2.29555 8.80117 1.78235 9.09663 1.34263C9.3921 0.902911 9.80051 0.553386 10.2777 0.331826C10.5431 0.217311 10.8162 0.122259 11.095 0.0474037L11.2132 0H12.0625C12.1093 0.0149696 12.1536 0.037424 12.2004 0.0474037C12.7649 0.145029 13.2896 0.405796 13.7115 0.798372C14.1333 1.19095 14.4344 1.69863 14.5784 2.26041C14.7717 2.93757 14.7289 3.66155 14.4572 4.31047C14.1855 4.95939 13.7014 5.4936 13.0866 5.82317C13.0203 5.85063 12.9648 5.89951 12.9287 5.96223C12.8927 6.02494 12.8781 6.09797 12.8872 6.16997C12.9003 6.69224 12.911 7.21368 12.9192 7.73429C12.9192 8.0237 12.9192 7.97131 13.1654 7.98378H18.8618C18.9061 7.98378 18.9529 7.98378 19.012 7.99626C19.0034 8.02923 18.991 8.06105 18.9751 8.09107C18.527 8.78715 18.0815 9.48573 17.626 10.1768C17.5997 10.2079 17.5673 10.233 17.5308 10.2506C17.4944 10.2682 17.4547 10.2779 17.4143 10.2791C16.4616 10.2791 15.5089 10.2791 14.5562 10.2791C14.1205 10.2791 13.6823 10.2791 13.2441 10.2791C13.1211 10.2791 13.0817 10.3165 13.0915 10.4413C13.1063 10.6309 13.1087 10.818 13.1112 11.0076C13.1851 14.5188 13.2581 18.0284 13.3303 21.5363C13.3309 22.2285 13.4884 22.9114 13.7906 23.5322C14.0306 24.0509 14.462 24.4532 14.992 24.6524C15.9594 24.9992 16.8875 24.8121 17.7663 24.363C18.6083 23.9314 19.1868 23.2153 19.6742 22.4195C19.7604 22.2773 19.8367 22.1251 19.9204 21.9579L18.1725 21.6261C19.7973 20.3412 20.6047 18.5723 21.2965 16.716C21.3457 16.7734 21.3851 16.8109 21.4171 16.8508C22.1808 17.7895 22.7073 18.9028 22.9508 20.0942C22.9625 20.1343 22.9791 20.1729 23 20.209V23.1006C22.9606 23.1754 22.9237 23.2079 22.8252 23.153C22.4683 22.9609 22.1039 22.7862 21.7421 22.6041C21.7101 22.5914 21.6772 22.5814 21.6436 22.5741C21.6165 22.7164 21.587 22.8486 21.5623 22.9833C21.3563 24.1232 20.8569 25.1878 20.1148 26.0695C19.2795 27.0498 18.2415 27.8318 17.0746 28.3599C16.4891 28.6291 15.8832 28.8502 15.2628 29.0211C14.7522 29.185 14.274 29.4383 13.8497 29.7695C13.0796 30.3391 12.4245 31.0531 11.9197 31.8728C11.8912 31.9136 11.8528 31.9463 11.8083 31.968C11.7638 31.9896 11.7146 31.9994 11.6653 31.9964C11.6161 31.9934 11.5684 31.9777 11.5267 31.9508C11.4851 31.924 11.4509 31.8868 11.4274 31.8428C11.1237 31.2572 10.7261 30.7269 10.2507 30.2735C9.82983 29.8532 9.34737 29.5014 8.8204 29.2306C8.55207 29.0984 8.25666 29.0211 7.98095 28.9013C7.43937 28.6668 6.89286 28.4422 6.36605 28.1728C5.40842 27.6817 4.53017 27.0457 3.76153 26.2866C3.06756 25.6047 2.48579 24.8147 2.03832 23.9464C1.76901 23.4212 1.56082 22.8661 1.41796 22.2922L0.0492347 23.2627L0 23.2328C0.0320026 20.7828 0.900995 18.6371 2.33619 16.6836Z" fill="#20A0E0"/>
</svg>
