<svg width="30" height="30" viewBox="0 0 30 30" fill="none" xmlns="http://www.w3.org/2000/svg">
<path d="M5.625 3.75C5.625 2.75544 6.02009 1.80161 6.72335 1.09835C7.42661 0.395088 8.38044 0 9.375 0L20.625 0C21.6196 0 22.5734 0.395088 23.2766 1.09835C23.9799 1.80161 24.375 2.75544 24.375 3.75V26.25C24.375 27.2446 23.9799 28.1984 23.2766 28.9016C22.5734 29.6049 21.6196 30 20.625 30H9.375C8.38044 30 7.42661 29.6049 6.72335 28.9016C6.02009 28.1984 5.625 27.2446 5.625 26.25V3.75ZM16.875 24.375C16.875 23.8777 16.6775 23.4008 16.3258 23.0492C15.9742 22.6975 15.4973 22.5 15 22.5C14.5027 22.5 14.0258 22.6975 13.6742 23.0492C13.3225 23.4008 13.125 23.8777 13.125 24.375C13.125 24.8723 13.3225 25.3492 13.6742 25.7008C14.0258 26.0525 14.5027 26.25 15 26.25C15.4973 26.25 15.9742 26.0525 16.3258 25.7008C16.6775 25.3492 16.875 24.8723 16.875 24.375Z" fill="black"/>
</svg>
