<svg width="29" height="29" viewBox="0 0 29 29" fill="none" xmlns="http://www.w3.org/2000/svg">
<path d="M14.4 0C6.447 0 0 6.447 0 14.4C0 22.353 6.447 28.8 14.4 28.8C22.353 28.8 28.8 22.353 28.8 14.4C28.8 6.447 22.353 0 14.4 0ZM19.938 16.2465C19.938 16.2465 21.2115 17.5035 21.525 18.087C21.534 18.099 21.5385 18.111 21.5415 18.117C21.669 18.3315 21.699 18.498 21.636 18.6225C21.531 18.8295 21.171 18.9315 21.048 18.9405H18.798C18.642 18.9405 18.315 18.9 17.919 18.627C17.6145 18.414 17.3145 18.0645 17.022 17.724C16.5855 17.217 16.2075 16.779 15.8265 16.779C15.7781 16.7789 15.73 16.7865 15.684 16.8015C15.396 16.8945 15.027 17.3055 15.027 18.4005C15.027 18.7425 14.757 18.939 14.5665 18.939H13.536C13.185 18.939 11.3565 18.816 9.7365 17.1075C7.7535 15.015 5.9685 10.818 5.9535 10.779C5.841 10.5075 6.0735 10.362 6.327 10.362H8.5995C8.9025 10.362 9.0015 10.5465 9.0705 10.71C9.1515 10.9005 9.4485 11.658 9.936 12.51C10.7265 13.899 11.211 14.463 11.5995 14.463C11.6723 14.4621 11.7439 14.4436 11.808 14.409C12.315 14.127 12.2205 12.3195 12.198 11.9445C12.198 11.874 12.1965 11.136 11.937 10.782C11.751 10.5255 11.4345 10.428 11.2425 10.392C11.3202 10.2848 11.4226 10.1978 11.541 10.1385C11.889 9.9645 12.516 9.939 13.1385 9.939H13.485C14.16 9.948 14.334 9.9915 14.5785 10.053C15.0735 10.1715 15.084 10.491 15.0405 11.5845C15.027 11.895 15.0135 12.246 15.0135 12.66C15.0135 12.75 15.009 12.846 15.009 12.948C14.994 13.5045 14.976 14.136 15.369 14.3955C15.4203 14.4276 15.4795 14.4448 15.54 14.445C15.6765 14.445 16.0875 14.445 17.2005 12.5355C17.5438 11.9209 17.842 11.2822 18.093 10.6245C18.1155 10.5855 18.1815 10.4655 18.2595 10.419C18.3171 10.3897 18.3809 10.3747 18.4455 10.3755H21.117C21.408 10.3755 21.6075 10.419 21.645 10.5315C21.711 10.71 21.633 11.2545 20.4135 12.906L19.869 13.6245C18.7635 15.0735 18.7635 15.147 19.938 16.2465V16.2465Z" fill="white"/>
</svg>
