<svg width="48" height="125" viewBox="0 0 48 125" fill="none" xmlns="http://www.w3.org/2000/svg">
<g clip-path="url(#clip0_1_6)">
<path d="M15.8566 51.9628C16.0022 51.5991 16.0735 51.2083 16.0663 50.8139C16.0694 50.392 15.9951 49.9724 15.8475 49.5767C15.7856 49.3948 15.6853 49.2286 15.5539 49.0899C15.4225 48.9511 15.2631 48.8432 15.0869 48.7738L15.1308 52.7761C15.4486 52.6671 15.6917 52.3937 15.8566 51.9628Z" fill="#20A0E0"/>
<path d="M10.5317 69.5884C10.5699 73.0675 10.8096 75.1751 11.2509 75.9111C11.6361 75.1359 11.8111 73.1489 11.7761 69.95C11.7439 67.0188 11.5138 65.2186 11.0856 64.5495C10.6879 65.2059 10.5032 66.8855 10.5317 69.5884Z" fill="#20A0E0"/>
<path d="M4.28336 54.6795L4.32699 58.6593C4.49233 58.6193 4.64646 58.5422 4.77822 58.4336C4.90997 58.3249 5.01605 58.1875 5.08878 58.0312C5.29793 57.6372 5.3991 57.1921 5.38177 56.7421C5.37974 56.3222 5.28165 55.9074 5.0953 55.5308C4.92988 55.1599 4.64248 54.8585 4.28336 54.6795Z" fill="#20A0E0"/>
<path d="M23.5362 35.8289C23.6437 35.8303 23.7489 35.7991 23.8383 35.7392C23.9278 35.6794 23.9975 35.5936 24.0386 35.4927C24.0798 35.3919 24.0905 35.2805 24.0694 35.1727C24.0483 35.065 23.9964 34.9657 23.9202 34.8874C23.844 34.8091 23.747 34.7554 23.6415 34.7331C23.5359 34.7108 23.4266 34.7209 23.3274 34.762C23.2282 34.8032 23.1435 34.8736 23.0841 34.9644C23.0248 35.0551 22.9933 35.1621 22.9939 35.2717C22.995 35.4179 23.0526 35.5583 23.1541 35.6626C23.2556 35.7669 23.3929 35.8266 23.5362 35.8289Z" fill="#20A0E0"/>
<path d="M10.4049 53.5323L10.2952 51.2655L10.1684 48.9832H10.0139C10.0053 49.2739 9.99864 49.5992 9.99071 49.9591L9.98387 50.8831C9.96827 51.6272 9.95233 52.2368 9.93605 52.7121L9.77066 56.3545H10.5733L10.4049 53.5323Z" fill="#20A0E0"/>
<path d="M4.98 51.8244C5.03636 51.6417 5.07968 51.4549 5.10963 51.2655C5.13165 51.104 5.14178 50.9409 5.13991 50.7775C5.15002 50.2848 5.0446 49.7954 4.8324 49.35C4.65892 49.0039 4.45206 48.8118 4.21182 48.7738L4.25443 52.6602C4.42844 52.584 4.58356 52.4697 4.7089 52.3253C4.83425 52.1809 4.92678 52.0099 4.98 51.8244V51.8244Z" fill="#20A0E0"/>
<path d="M9.27184 39.7984C9.24823 37.6447 9.08971 36.3417 8.79629 35.8895C8.51516 36.2494 8.38558 37.4307 8.40753 39.4333C8.43231 41.6931 8.59997 43.0048 8.91052 43.3681C9.17301 42.9598 9.29346 41.7699 9.27184 39.7984Z" fill="#20A0E0"/>
<path d="M13.7427 37.5991C13.7334 36.7501 13.5733 36.1785 13.2623 35.8843C12.9861 36.0712 12.8524 36.5632 12.8611 37.3603C12.8706 38.229 13.0915 38.8755 13.5238 39.3C13.6972 38.7524 13.7714 38.1761 13.7427 37.5991V37.5991Z" fill="#20A0E0"/>
<path d="M21.5479 51.9628C21.6927 51.5989 21.7641 51.2082 21.7576 50.8139C21.7606 50.392 21.6864 49.9724 21.5387 49.5767C21.4768 49.3948 21.3766 49.2286 21.2451 49.0899C21.1137 48.9511 20.9543 48.8432 20.7782 48.7738L20.822 52.7761C21.1398 52.6607 21.3817 52.3897 21.5479 51.9628Z" fill="#20A0E0"/>
<path d="M31.8852 13.2805H14.7708L14.7535 15.4245H31.9511L31.8852 13.2805Z" fill="#20A0E0"/>
<path d="M32.0154 17.5701H14.7363L14.7191 19.7158H32.0796L32.0154 17.5701Z" fill="#20A0E0"/>
<path d="M32.1439 21.8597H14.7002L14.683 24.0053H32.2081L32.1439 21.8597Z" fill="#20A0E0"/>
<path d="M31.7883 10.0154C31.7864 9.94226 31.8091 9.87097 31.8527 9.81336C31.8962 9.75576 31.9579 9.71529 32.0275 9.6987C32.2373 9.64506 32.5019 9.47549 32.4962 8.95984C32.4958 8.85085 32.4726 8.74295 32.4282 8.64331C32.3838 8.54366 32.3192 8.45455 32.2388 8.38189C32.1971 8.34465 32.1656 8.29698 32.1476 8.24368C32.1295 8.19037 32.1255 8.13332 32.1359 8.07825C32.1463 8.02319 32.1708 7.97204 32.2068 7.92997C32.2429 7.88789 32.2893 7.85637 32.3414 7.83856H32.355C32.4174 7.81774 32.4716 7.77723 32.5097 7.72284C32.5478 7.66845 32.5679 7.60295 32.5672 7.53575L32.5101 2.33081C32.4983 1.25452 30.1042 0.652356 27.7369 0.320126C24.7081 -0.107278 21.6407 -0.107278 18.6214 0.320126C16.2681 0.652356 13.8804 1.25452 13.8922 2.33081L13.9492 7.53056C13.95 7.59776 13.9715 7.66325 14.0108 7.71765C14.0501 7.77204 14.1052 7.81255 14.1681 7.83337H14.1816C14.2342 7.85097 14.2815 7.88235 14.3187 7.92433C14.3559 7.96632 14.3816 8.01743 14.3934 8.07252C14.4052 8.12761 14.4026 8.18474 14.3858 8.23814C14.369 8.29154 14.3387 8.33933 14.2979 8.3767C14.219 8.44936 14.1564 8.53847 14.1142 8.63812C14.072 8.73776 14.0512 8.84566 14.0531 8.95465C14.0588 9.47376 14.3254 9.64679 14.5363 9.69351C14.6066 9.70976 14.6696 9.75008 14.7147 9.80772C14.7598 9.86536 14.7843 9.93683 14.7841 10.0102L14.7743 11.1297H31.8209L31.7883 10.0154Z" fill="#20A0E0"/>
<path d="M33.5004 38.646C33.7237 38.3749 33.8316 37.9008 33.8242 37.2236C33.82 36.9482 33.7862 36.6737 33.7236 36.4051C33.6939 36.1768 33.6074 35.9593 33.4724 35.7736C33.2516 36.0729 33.1417 36.5678 33.1493 37.2617C33.1513 37.51 33.1796 37.7578 33.2338 38.0005C33.2769 38.232 33.3678 38.4521 33.5004 38.646V38.646Z" fill="#20A0E0"/>
<path d="M35.5155 69.9898L35.3884 67.3804L35.2408 64.7502H35.0711C35.0612 65.0859 35.0518 65.4597 35.0444 65.875L35.0357 66.9392C35.018 67.7951 34.9991 68.4976 34.9791 69.0467L34.7892 73.2411H35.7157L35.5155 69.9898Z" fill="#20A0E0"/>
<path d="M39.3193 39.7655C39.2959 37.6314 39.1483 36.34 38.8764 35.8912C38.6145 36.2535 38.4939 37.4266 38.5145 39.4108C38.5391 41.6499 38.6953 42.95 38.9832 43.311C39.2288 42.9061 39.3408 41.7243 39.3193 39.7655Z" fill="#20A0E0"/>
<path d="M43.4562 37.5922C43.447 36.7478 43.2988 36.1808 43.0117 35.8912C42.7546 36.077 42.6305 36.5649 42.6391 37.3551C42.6485 38.2145 42.8541 38.8554 43.2558 39.2776C43.4157 38.7324 43.4835 38.1626 43.4562 37.5922V37.5922Z" fill="#20A0E0"/>
<path d="M33.8858 41.7554C33.8788 41.1238 33.7582 40.648 33.5308 40.3331C33.3076 40.6134 33.1999 41.1054 33.2076 41.8091C33.2153 42.5128 33.3338 42.9961 33.5629 43.2591C33.7866 43.0284 33.8942 42.5272 33.8858 41.7554Z" fill="#20A0E0"/>
<path d="M46.74 34.2197C46.7252 33.5502 46.4816 32.9043 46.0513 32.3937C45.6209 31.8832 45.0308 31.54 44.3829 31.4234L36.322 29.9543C32.8451 29.3297 32.337 26.9349 32.2916 26.6667C32.2906 26.6522 32.2905 26.6378 32.2911 26.6234L32.2774 26.1458H14.6658L14.671 26.6234C14.672 26.6378 14.6722 26.6522 14.6715 26.6667C14.632 26.9297 14.178 29.3245 10.7131 29.9543L2.6709 31.4234C2.02574 31.5403 1.44334 31.8836 1.02422 32.3941C0.605096 32.9046 0.375539 33.5503 0.375168 34.2197L0.375908 34.2872C0.400873 36.5643 1.6807 121.108 1.6807 121.108C1.6807 121.108 1.73287 124.01 4.97183 124.289C8.21078 124.567 24.5471 124.635 24.5471 124.635C24.5471 124.635 40.882 124.572 44.1148 124.289C47.3476 124.005 47.3362 121.108 47.3362 121.108C47.3362 121.108 46.7623 36.5643 46.7373 34.2872C46.7421 34.2612 46.7402 34.2422 46.74 34.2197ZM41.2721 37.5662C41.26 36.4669 41.4577 35.6144 41.8651 35.0087C42.1873 34.526 42.5579 34.2837 42.9804 34.2837C43.5823 34.2837 44.052 34.6661 44.3895 35.4309C44.6964 36.1609 44.8501 36.9467 44.8407 37.7375C44.8538 38.9315 44.5624 40.2621 43.9665 41.7295C43.4158 43.0919 42.7861 44.1549 42.0772 44.9185L41.2502 43.7713C41.9385 42.8852 42.4695 41.8823 42.8195 40.8072C41.803 40.0251 41.2872 38.9447 41.2721 37.5662ZM38.0871 34.6246C38.1783 34.5313 38.2819 34.4515 38.395 34.3875C38.5352 34.3189 38.689 34.2829 38.8452 34.282C39.3373 34.282 39.7506 34.6281 40.0851 35.3202C40.5183 36.2431 40.7453 37.7012 40.766 39.6946C40.7935 42.2071 40.4538 43.8278 39.7469 44.5569C39.6652 44.6464 39.5698 44.7218 39.4643 44.7801C39.3412 44.8582 39.1989 44.8995 39.0532 44.8995C38.7394 44.9018 38.4361 44.7774 38.2095 44.5534C37.4763 43.8163 37.0962 42.169 37.0693 39.6115C37.0409 37.0183 37.3801 35.3565 38.0871 34.6263L38.0871 34.6246ZM34.3421 92.9725L34.3823 96.6443H31.759L31.8493 104.881H34.5066L34.5476 108.624H28.1505L27.8394 80.2457H34.2721L34.3132 83.9902H31.6203L31.7187 92.9725H34.3421ZM26.7721 64.309L26.7492 62.2222H31.8279L31.851 64.3298H30.3544L30.5064 78.2004H28.421L28.2687 64.309H26.7721ZM32.4188 78.2004L34.0339 62.0803H36.3145L38.144 78.2004H36.0178L35.8693 75.3297H34.6815L34.5161 78.2004H32.4188ZM36.2073 60.6597L36.0552 46.7873H39.2012L39.2213 48.6233H37.9063L37.9544 53.0149H39.2355L39.2552 54.8093H37.9741L38.0182 58.8324H39.3163L39.3363 60.6614L36.2073 60.6597ZM38.6814 62.217H40.7669L40.942 78.1952H38.8532L38.6814 62.217ZM35.7896 43.6052C35.8574 43.5331 35.9391 43.4761 36.0298 43.4377C36.1204 43.3993 36.218 43.3803 36.3165 43.382C36.5194 43.38 36.7156 43.4603 36.862 43.6052C36.9344 43.6774 36.9917 43.7637 37.0303 43.859C37.069 43.9542 37.0883 44.0563 37.0869 44.1589C37.0897 44.2594 37.0722 44.3591 37.0355 44.452C36.9989 44.5448 36.9439 44.6288 36.874 44.6988C36.7309 44.8441 36.5365 44.925 36.3334 44.9237C36.2348 44.9251 36.1368 44.9058 36.0453 44.8671C35.9538 44.8284 35.8709 44.7711 35.8016 44.6988C35.7267 44.6308 35.6667 44.5475 35.6256 44.4544C35.5845 44.3613 35.5632 44.2606 35.5632 44.1589C35.56 44.0551 35.5786 43.952 35.6176 43.8565C35.6567 43.7611 35.7153 43.6754 35.7896 43.6052V43.6052ZM31.8153 37.0834C31.7871 36.3925 31.9451 35.7091 32.2722 35.1074C32.5772 34.5537 32.9616 34.2768 33.4254 34.2768C33.8892 34.2768 34.2753 34.5185 34.5838 35.0018C34.9427 35.5475 35.1318 36.2852 35.1511 37.215C35.1617 38.1892 34.907 38.9453 34.387 39.4938C34.966 40.1754 35.278 41.0494 35.2623 41.9458C35.2958 42.6873 35.1277 43.4215 34.7765 44.0672C34.4552 44.6296 34.0697 44.9099 33.6234 44.9099C33.1313 44.9099 32.7142 44.629 32.3721 44.0672C32.0084 43.4208 31.8243 42.6871 31.8398 41.9458C31.8284 40.9076 32.0949 40.0902 32.6393 39.4938C32.1017 38.9563 31.827 38.1511 31.8152 37.0783L31.8153 37.0834ZM31.0954 46.7925H35.5072L35.5273 48.6233H34.2275L34.3595 60.6649H32.5473L32.415 48.6042H31.1152L31.0954 46.7925ZM29.6707 39.4264C29.8476 39.426 30.0213 39.4792 30.1697 39.5792C30.318 39.6792 30.4345 39.8215 30.5043 39.9881C30.574 40.1547 30.594 40.3381 30.5616 40.5151C30.5292 40.6921 30.446 40.8548 30.3224 40.9825C30.1988 41.1102 30.0404 41.1972 29.8673 41.2325C29.6942 41.2678 29.5141 41.2499 29.3498 41.1809C29.1856 41.1119 29.0445 40.9951 28.9446 40.8451C28.8446 40.6951 28.7901 40.5187 28.7882 40.3383C28.786 40.2182 28.8071 40.0991 28.8503 39.9878C28.8935 39.8766 28.958 39.7754 29.0401 39.6902C29.1221 39.6049 29.2201 39.5373 29.3283 39.4911C29.4365 39.4449 29.5529 39.4212 29.6707 39.4212L29.6707 39.4264ZM29.4365 46.6939C29.8377 46.7021 30.2361 46.7721 30.6181 46.9015L30.6383 48.7496C30.539 48.7002 30.4358 48.6597 30.3299 48.6284C30.2083 48.5844 30.0809 48.5605 29.9524 48.5575C29.7921 48.5508 29.6332 48.5857 29.4907 48.659C29.3482 48.7322 29.2266 48.8414 29.1374 48.9762C28.9201 49.3097 28.8165 49.7078 28.8427 50.1096C28.8496 50.736 29.1694 51.8977 29.8023 53.5946C30.0559 54.2385 30.2744 54.8959 30.4568 55.5637C30.6503 56.2629 30.7557 56.9833 30.7705 57.7077C30.7815 58.7182 30.5225 59.4969 29.9935 60.0437C29.7725 60.2779 29.5057 60.4623 29.21 60.585C28.9143 60.7078 28.5961 60.7662 28.2756 60.7566C27.8926 60.746 27.5122 60.6819 27.1451 60.5662L27.124 58.6386C27.3831 58.7578 27.6625 58.8231 27.9456 58.8307C28.6414 58.8307 28.9846 58.4062 28.9752 57.5571C28.9679 56.8846 28.6476 55.7345 28.0143 54.1068C27.3712 52.5045 27.0433 51.1778 27.0306 50.1269C27.0055 47.8302 27.8074 46.6824 29.4364 46.6835L29.4365 46.6939ZM20.4751 39.8538C20.6466 40.4743 20.9418 41.0535 21.3421 41.5547H20.8178C20.8593 41.6274 20.894 41.6983 20.9372 41.7641C21.1355 42.0698 21.4063 42.3199 21.724 42.4908C21.8314 42.548 21.9505 42.5778 22.0711 42.5778C22.1917 42.5778 22.3102 42.548 22.4163 42.4908C22.618 42.3901 22.7729 42.2134 22.8487 41.9977C22.9621 41.6877 23.02 41.359 23.0196 41.0269C23.0349 40.2517 23.0467 39.4696 23.062 38.7031C23.0586 38.3916 23.0722 38.0801 23.0789 37.7687C23.0782 37.6977 23.0781 37.696 23.0052 37.6943L22.031 37.677H21.6034C21.5835 37.6783 21.5637 37.6736 21.5463 37.6635C21.529 37.6533 21.5149 37.6381 21.506 37.6199C21.373 37.4018 21.2366 37.1873 21.1001 36.971C21.0901 36.9547 21.0808 36.938 21.0724 36.9208H21.1318H23.0493C23.0951 36.9208 23.1102 36.907 23.1097 36.862C23.1076 36.6699 23.1208 36.4778 23.1238 36.2857C23.1232 36.2754 23.1202 36.2653 23.1151 36.2563C23.11 36.2472 23.1029 36.2396 23.0943 36.2338C22.9064 36.1442 22.7501 35.9969 22.6476 35.8128C22.5451 35.6287 22.5015 35.417 22.5231 35.2077C22.5307 35.0295 22.586 34.8574 22.6831 34.71C22.7802 34.5627 22.9154 34.4457 23.0739 34.372C23.1618 34.3341 23.2522 34.3023 23.3444 34.2768L23.3849 34.2612H23.67C23.6853 34.2612 23.7007 34.2733 23.716 34.2768C23.9048 34.31 24.0809 34.3978 24.2231 34.5297C24.3654 34.6617 24.4679 34.8322 24.5183 35.0209C24.5858 35.2485 24.5744 35.4921 24.4858 35.7103C24.3973 35.9285 24.2372 36.108 24.0325 36.2183C24.0105 36.2273 23.9922 36.2436 23.9804 36.2646C23.9686 36.2856 23.9641 36.3101 23.9676 36.3342C23.9695 36.5072 23.9714 36.6803 23.9835 36.8533C23.9846 36.9502 23.9844 36.9329 24.0658 36.9329H25.968H26.0189C26.0153 36.9442 26.0109 36.9552 26.0057 36.9658C25.8589 37.1994 25.7139 37.433 25.5636 37.6579C25.555 37.6686 25.5442 37.6772 25.5319 37.6831C25.5197 37.6891 25.5063 37.6923 25.4927 37.6925C25.1754 37.6925 24.8564 37.6925 24.5391 37.6925H24.0996C24.0589 37.6925 24.0455 37.7064 24.0493 37.7479C24.0532 37.7894 24.0507 37.8742 24.0514 37.9382C24.0892 39.1172 24.127 40.2967 24.1648 41.4768C24.1657 41.7103 24.2206 41.941 24.3249 42.15C24.4067 42.3244 24.552 42.4599 24.7295 42.5272C24.8829 42.5778 25.0446 42.5953 25.2042 42.5787C25.3639 42.562 25.518 42.5114 25.6567 42.4303C25.9226 42.2768 26.1405 42.0503 26.2858 41.7762C26.3141 41.7295 26.339 41.6776 26.369 41.6222L25.784 41.5097C26.3188 41.0754 26.582 40.4715 26.806 39.8538L26.8472 39.8988C27.1044 40.2154 27.2832 40.5901 27.3683 40.9906C27.3716 41.0043 27.3775 41.0172 27.3857 41.0287L27.3963 42.0011C27.383 42.0271 27.3713 42.0375 27.3371 42.0202C27.2177 41.9562 27.0948 41.8973 26.9737 41.835L26.9413 41.8264C26.9317 41.8731 26.922 41.9181 26.9157 41.9631C26.8501 42.3462 26.6873 42.7041 26.4435 43.0013C26.1676 43.3314 25.8228 43.5944 25.4338 43.7713C25.2393 43.8623 25.0375 43.9363 24.8305 43.9928C24.66 44.0489 24.5007 44.135 24.3598 44.2472C24.1051 44.4389 23.8894 44.6791 23.7245 44.9549C23.7151 44.9695 23.7021 44.9812 23.6868 44.9891C23.6715 44.9969 23.6544 45.0004 23.6372 44.9994C23.62 44.9983 23.6034 44.9927 23.5889 44.9831C23.5744 44.9734 23.5626 44.9601 23.5547 44.9445C23.3522 44.5701 23.0458 44.2641 22.6745 44.0655C22.5841 44.0222 22.4854 43.9963 22.3934 43.9565C22.2109 43.8769 22.0268 43.8007 21.8511 43.7107C21.5293 43.5458 21.2335 43.3323 20.9736 43.0774C20.7379 42.8486 20.5395 42.5827 20.3864 42.2901C20.2934 42.1143 20.2218 41.9278 20.1733 41.7347L19.7355 42.0479L19.7185 42.0375C19.7303 41.2393 19.9957 40.4694 20.475 39.8434L20.4751 39.8538ZM26.6842 92.976L26.7245 96.6478H24.1028L24.1931 104.884H26.8504L26.8914 108.627H20.4926L20.1815 80.2491H26.616L26.657 83.9936H23.9641L24.0625 92.9725L26.6842 92.976ZM23.9071 66.8786C23.9868 66.3339 24.033 65.7843 24.0452 65.233C24.0541 64.8039 24.0548 64.2484 24.0473 63.5667L24.0326 62.2222H26.1197L26.1259 64.6447C26.1265 66.9738 25.7057 68.6736 24.8633 69.7441C25.3532 70.1594 25.7238 71.0494 25.9752 72.414C26.1769 73.5428 26.2803 74.6864 26.2842 75.8315L26.3101 78.2004H24.1687L24.1388 75.4699C24.1357 75.1895 24.1328 74.9213 24.1096 74.667C24.077 74.0112 24.0248 73.4367 23.9532 72.9366C23.755 71.5719 23.4187 70.8221 22.9443 70.6871L23.0267 78.1952H20.9209L20.7458 62.2222H22.8515L22.9288 69.2665C23.4231 68.8535 23.7492 68.0576 23.9071 66.8786ZM24.6874 60.6597L24.5353 46.7873H26.3458L26.4979 60.6597H24.6874ZM18.9459 46.7873H19.9215C21.0528 46.7873 21.9158 47.0896 22.5107 47.694C23.2266 48.4023 23.5908 49.3783 23.6033 50.6218C23.6173 51.9 23.2123 52.8759 22.3882 53.5496C23.2844 54.3975 23.88 56.7675 24.1749 60.6597H22.3271C22.2987 59.3343 22.1329 58.0142 21.8325 56.7214C21.5448 55.4524 21.2123 54.7378 20.835 54.5774L20.9017 60.6597H19.0962L18.9459 46.7873ZM17.4733 74.3659C17.7877 75.4906 18.2531 76.0524 18.8696 76.0513C19.0878 76.0451 19.299 75.9754 19.4783 75.8505L19.5016 77.9789C19.2291 78.2115 18.8777 78.3268 18.521 78.3007C17.3649 78.3007 16.4635 77.4978 15.8169 75.8921C15.2099 74.3797 14.8984 72.3321 14.8825 69.7493C14.8589 67.5944 15.1739 65.7879 15.8276 64.3298C16.4765 62.844 17.31 62.1011 18.3281 62.1011C18.6961 62.1048 19.0575 62.2088 19.375 62.4021L19.3972 64.4301C19.304 64.3764 19.2042 64.3357 19.1006 64.309C18.9988 64.2721 18.892 64.2517 18.7843 64.2484C17.6135 64.2484 17.0488 66.1345 17.0901 69.9067L17.104 71.1699C17.0931 72.2454 17.2172 73.3194 17.4733 74.3659V74.3659ZM13.4067 60.6597L13.2546 46.7873H14.2286C15.3598 46.7873 16.2235 47.0896 16.8195 47.694C17.5331 48.4023 17.8968 49.3783 17.9104 50.6218C17.9244 51.9 17.5194 52.8759 16.6953 53.5496C17.5915 54.3975 18.1871 56.7675 18.482 60.6597H16.6358C16.6106 59.3345 16.4471 58.0143 16.1481 56.7214C15.8615 55.4524 15.529 54.7378 15.1506 54.5774L15.2172 60.6597H13.4067ZM13.9645 70.3705C14.0065 74.198 13.4889 76.6673 12.4117 77.7782C12.2679 77.9392 12.0932 78.0682 11.8981 78.1575C11.703 78.2467 11.4917 78.2943 11.2771 78.2973C10.1741 78.2973 9.37081 77.2533 8.86715 75.1653C8.67145 74.3105 8.53661 73.4431 8.46369 72.5698C8.39129 71.8476 8.35064 71.1318 8.34173 70.4224C8.29713 66.3549 8.83972 63.7386 9.9695 62.5734C10.114 62.425 10.2869 62.3083 10.4776 62.2304C10.6684 62.1525 10.8731 62.115 11.0794 62.1201C11.2941 62.1232 11.5064 62.1708 11.7034 62.26C11.9004 62.3493 12.078 62.4783 12.2253 62.6392C13.3406 63.7662 13.9204 66.3433 13.9645 70.3705ZM17.3905 39.4212C17.5675 39.4208 17.7411 39.474 17.8895 39.574C18.0379 39.674 18.1543 39.8163 18.2241 39.9829C18.2938 40.1495 18.3138 40.3329 18.2814 40.5099C18.2491 40.6869 18.1658 40.8496 18.0422 40.9773C17.9186 41.105 17.7602 41.192 17.5871 41.2273C17.414 41.2627 17.2339 41.2447 17.0697 41.1757C16.9054 41.1068 16.7644 40.9899 16.6644 40.8399C16.5644 40.6899 16.51 40.5135 16.508 40.3331C16.5053 40.0915 16.5968 39.8598 16.7622 39.6889C16.9277 39.5179 17.1537 39.4216 17.3905 39.4212ZM11.3821 37.5731C11.3699 36.4657 11.5839 35.6063 12.0241 34.9949C12.3734 34.5069 12.7745 34.263 13.231 34.263C13.8826 34.263 14.3897 34.6488 14.7522 35.4206C15.0823 36.1509 15.2482 36.9456 15.2375 37.7462C15.2507 38.9505 14.9351 40.2927 14.2907 41.7727C13.6915 43.1466 13.0098 44.2189 12.2456 44.9895L11.354 43.8336C12.0924 42.9483 12.6675 41.9332 13.0519 40.8366C11.954 40.0522 11.3973 38.9644 11.3821 37.5731ZM12.6889 60.6597H10.8462L10.717 58.1679H9.68703L9.54467 60.6597H7.71546L9.11636 46.6662H11.1L12.6889 60.6597ZM7.94399 34.6073C8.04432 34.5116 8.15772 34.4312 8.28074 34.3685C8.43378 34.2985 8.59982 34.262 8.76826 34.2612C9.29994 34.2612 9.74609 34.6113 10.1067 35.3116C10.5694 36.2425 10.8118 37.7133 10.8338 39.724C10.8616 42.2619 10.4933 43.897 9.72866 44.6296C9.63931 44.7203 9.53653 44.7962 9.42399 44.8545C9.28881 44.9332 9.13544 44.9744 8.97903 44.9739C8.64481 44.9775 8.31985 44.8542 8.06742 44.6278C7.27758 43.8838 6.86852 42.2221 6.84024 39.6427C6.81151 37.0217 7.17942 35.3433 7.94399 34.6073ZM5.21015 74.3659C5.52452 75.4906 5.98996 76.0524 6.60647 76.0513C6.82462 76.0451 7.0358 75.9754 7.21514 75.8505L7.23847 77.9789C6.96539 78.2118 6.61345 78.3271 6.25613 78.3007C5.10227 78.3007 4.20149 77.4978 3.55379 75.8921C2.9467 74.3797 2.63522 72.3321 2.61935 69.7493C2.59572 67.5944 2.91077 65.7879 3.56447 64.3298C4.21674 62.844 5.04854 62.1011 6.05986 62.1011C6.42785 62.1048 6.78927 62.2088 7.10673 62.4021L7.12896 64.4301C7.03573 64.3764 6.93597 64.3357 6.83238 64.309C6.73052 64.2721 6.6238 64.2517 6.5161 64.2484C5.34867 64.2484 4.78564 66.1357 4.82702 69.9102L4.84087 71.1734C4.83029 72.2477 4.95439 73.3206 5.21015 74.3659V74.3659ZM6.38705 59.5972C5.78055 60.3044 4.95297 60.6585 3.90433 60.6597H2.5197L2.36761 46.7873H3.52995C4.72567 46.7873 5.63021 47.2113 6.24359 48.0591C6.72969 48.7513 6.97837 49.6113 6.98964 50.6391C7.00855 51.2956 6.88169 51.9463 6.61854 52.5425C6.42311 52.95 6.14759 53.3116 5.80891 53.605C6.77293 54.2429 7.26316 55.3117 7.2796 56.8113C7.29232 57.9718 6.99481 58.9005 6.38705 59.5972V59.5972ZM5.11108 43.6606C5.26322 43.5108 5.46774 43.4287 5.68041 43.4322C5.89707 43.4298 6.10758 43.5107 6.27001 43.6588C6.34715 43.7294 6.4088 43.8157 6.45083 43.9121C6.49286 44.0085 6.51429 44.1127 6.5137 44.2177C6.51548 44.3203 6.49574 44.4219 6.4558 44.5156C6.41585 44.6093 6.35663 44.693 6.28209 44.7611C6.12318 44.9098 5.91442 44.9914 5.69749 44.9895C5.48513 44.9934 5.27885 44.912 5.12316 44.7628C5.04325 44.6973 4.97864 44.6144 4.93413 44.5204C4.88962 44.4263 4.86636 44.3235 4.86607 44.2195C4.86334 44.1131 4.88392 44.0078 4.92631 43.9111C4.96869 43.8144 5.03182 43.7288 5.11108 43.6606V43.6606ZM2.17106 36.4432L4.1288 34.237L4.24581 44.9099H2.77972L2.68895 36.6301H2.1799L2.17106 36.4432ZM6.50988 80.2422L7.84813 96.7516L9.24182 80.2422H12.5252L14.2815 96.9644L15.2521 80.2422H18.9851L15.9555 108.802H12.8383L11.0217 93.078L9.55153 108.802H6.4395L2.73278 80.2509L6.50988 80.2422ZM5.94648 121.717L4.69744 121.703L3.1293 110.382H4.65646L5.2537 116.877L5.62706 110.382H7.14914L5.94648 121.717ZM10.1284 121.645H7.7698L7.6463 110.38H9.13104L9.23809 120.144H10.112L10.1284 121.645ZM12.9316 121.645L12.8263 119.62H12.0016L11.8762 121.645H10.3914L11.5293 110.281H13.1396L14.4299 121.645H12.9316ZM17.5577 120.909C17.3149 121.155 17.0248 121.347 16.7052 121.474C16.3856 121.6 16.0432 121.658 15.6992 121.645H15.012L14.8885 110.38H15.333C16.2019 110.39 16.88 110.641 17.3673 111.131C18.3019 112.075 18.7823 113.697 18.8087 115.998C18.8349 118.386 18.4179 120.024 17.5577 120.911L17.5577 120.909ZM20.8814 121.645H19.4102L19.2867 110.38H20.7579L20.8814 121.645ZM24.0179 121.716L22.7689 121.702L21.2025 110.38H22.7296L23.3286 116.876L23.7019 110.38H25.2138L24.0179 121.716ZM28.497 121.347C28.3956 121.461 28.2722 121.553 28.1343 121.616C27.9963 121.68 27.8469 121.713 27.695 121.716C26.9179 121.716 26.3504 120.98 25.9926 119.508C25.8548 118.906 25.7596 118.296 25.7079 117.682C25.6559 117.173 25.6278 116.669 25.6234 116.168C25.592 113.3 25.9739 111.455 26.7692 110.631C26.8709 110.524 26.9932 110.44 27.1287 110.384C27.2641 110.328 27.4097 110.302 27.5563 110.306C27.7079 110.308 27.8577 110.341 27.9967 110.404C28.1357 110.467 28.2609 110.559 28.3647 110.672C29.1505 111.465 29.559 113.281 29.5902 116.121C29.6198 118.824 29.2554 120.567 28.497 121.349L28.497 121.347ZM32.3974 121.134C32.2182 121.325 32.0016 121.475 31.7614 121.575C31.5212 121.675 31.2626 121.723 31.0022 121.716C30.6911 121.707 30.3821 121.655 30.0842 121.56L30.0671 120.003C30.2774 120.099 30.5042 120.152 30.734 120.158C31.2996 120.158 31.5786 119.812 31.571 119.12C31.565 118.573 31.3053 117.639 30.792 116.319C30.2687 115.017 30.0024 113.942 29.993 113.093C29.9726 111.224 30.6235 110.29 31.9459 110.29C32.2724 110.297 32.5963 110.356 32.9066 110.463L32.923 111.962C32.8416 111.922 32.7573 111.889 32.6708 111.863C32.5723 111.827 32.4689 111.808 32.3647 111.806C32.2341 111.801 32.1048 111.83 31.9891 111.891C31.8734 111.951 31.775 112.041 31.7033 112.152C31.5274 112.422 31.4434 112.745 31.464 113.071C31.4696 113.581 31.7293 114.524 32.2433 115.902C32.4476 116.424 32.6234 116.958 32.7699 117.5C32.9276 118.068 33.0133 118.653 33.0248 119.241C33.0338 120.061 32.8236 120.693 32.394 121.136L32.3974 121.134ZM36.8875 111.866H35.8337L35.9409 121.645H34.4698L34.3624 111.854H33.2968L33.2807 110.382H36.861L36.8875 111.866ZM40.2154 121.347C40.1145 121.461 39.9914 121.553 39.8537 121.616C39.7161 121.68 39.5668 121.714 39.4152 121.716C38.638 121.716 38.0706 120.98 37.7128 119.508C37.5749 118.906 37.4798 118.296 37.4281 117.682C37.3772 117.173 37.3485 116.669 37.3419 116.168C37.3104 113.3 37.6929 111.455 38.4893 110.631C38.591 110.524 38.7134 110.44 38.8488 110.384C38.9842 110.328 39.1298 110.302 39.2765 110.306C39.428 110.308 39.5777 110.342 39.7166 110.405C39.8556 110.468 39.9808 110.559 40.0848 110.672C40.8707 111.465 41.2792 113.281 41.3103 116.121C41.3343 118.824 40.9665 120.567 40.207 121.349L40.2154 121.347ZM45.8523 121.645H44.3319L44.3108 119.722C44.3086 119.523 44.3066 119.335 44.291 119.156C44.2679 118.695 44.2312 118.291 44.181 117.945C44.0392 116.983 43.8021 116.455 43.4696 116.36L43.5276 121.645H42.0428L41.9193 110.38H43.4041L43.4585 115.348C43.806 115.055 44.0357 114.494 44.1477 113.664C44.2041 113.28 44.2367 112.892 44.2452 112.503C44.2521 112.202 44.2512 111.811 44.2459 111.328L44.2355 110.38H45.7067L45.7119 112.093C45.7129 113.731 45.4161 114.93 44.8215 115.689C45.164 115.981 45.4254 116.608 45.6057 117.571C45.7482 118.366 45.8218 119.171 45.8255 119.977L45.8523 121.645ZM45.7095 108.622H41.8899L41.8368 103.777C41.8313 103.277 41.8142 102.803 41.7872 102.351C41.7269 101.186 41.6342 100.164 41.5092 99.2849C41.1546 96.8624 40.5569 95.5311 39.716 95.2912L39.8622 108.625H36.1291L35.818 80.2474H39.551L39.6883 92.7631C40.5659 92.026 41.1449 90.6117 41.4251 88.5203C41.5678 87.5524 41.6506 86.5757 41.6731 85.596C41.6885 84.8369 41.6896 83.8506 41.6763 82.637L41.65 80.2422H45.3559L45.3676 84.5577C45.3677 88.6933 44.6202 91.7116 43.1252 93.6127C43.9953 94.3499 44.6535 95.9308 45.0998 98.3557C45.4594 100.356 45.6451 102.382 45.6548 104.412L45.7095 108.622ZM45.3759 78.1986H42.0213L41.8461 62.2222H43.9519L44.1037 76.0651H45.3424L45.3759 78.1986ZM43.3307 60.6597C43.3046 59.3346 43.1411 58.0145 42.8429 56.7214C42.5564 55.4524 42.2239 54.7378 41.8454 54.5774L41.9121 60.6597H40.0999L39.9478 46.7873H40.9218C42.053 46.7873 42.9166 47.0896 43.5126 47.694C44.2263 48.4023 44.5899 49.3783 44.6036 50.6218C44.6176 51.9 44.2126 52.8759 43.3885 53.5496C44.2869 54.3975 44.8825 56.7675 45.1752 60.6597H43.3307Z" fill="#20A0E0"/>
<path d="M27.1696 115.576C27.1964 118.029 27.3655 119.515 27.6766 120.034C27.9488 119.485 28.0726 118.084 28.0479 115.831C28.0253 113.765 27.8632 112.496 27.5616 112.024C27.2805 112.486 27.1498 113.671 27.1696 115.576Z" fill="#20A0E0"/>
<path d="M38.8812 115.576C38.9081 118.029 39.0771 119.515 39.3882 120.034C39.6605 119.485 39.7843 118.084 39.7596 115.831C39.7369 113.765 39.5748 112.496 39.2733 112.024C38.9922 112.486 38.8615 113.671 38.8812 115.576Z" fill="#20A0E0"/>
<path d="M41.7818 48.7738L41.8257 52.7761C42.1435 52.6607 42.3854 52.3874 42.5515 51.9559C42.6963 51.592 42.7676 51.2013 42.7611 50.807C42.7634 50.3852 42.6891 49.9657 42.5423 49.5697C42.479 49.3895 42.3783 49.2249 42.247 49.0875C42.1157 48.95 41.957 48.843 41.7818 48.7738V48.7738Z" fill="#20A0E0"/>
<path d="M12.4866 114.019L12.3831 112.166H12.2593C12.2618 112.401 12.2461 112.666 12.2408 112.958L12.2354 113.707C12.224 114.312 12.2107 114.807 12.1957 115.194L12.0585 118.151H12.7101L12.5746 115.858L12.4866 114.019Z" fill="#20A0E0"/>
<path d="M17.1057 113.893C16.9573 113.042 16.7155 112.5 16.3803 112.264L16.463 119.807C16.7486 119.648 16.9611 119.222 17.1006 118.53C17.2209 117.897 17.2747 117.252 17.2611 116.606L17.2474 115.36C17.2356 115.209 17.2306 115.062 17.229 114.92C17.1955 114.546 17.1544 114.203 17.1057 113.893Z" fill="#20A0E0"/>
</g>
<defs>
<clipPath id="clip0_1_6">
<rect width="46.3665" height="124.635" fill="white" transform="matrix(1 0 0.0109626 0.99994 0 0)"/>
</clipPath>
</defs>
</svg>
